<svg version="1.1" id="Layer_1" xmlns="http://www.w3.org/2000/svg" xmlns:xlink="http://www.w3.org/1999/xlink" x="0px" y="0px"
	 width="100%" viewBox="0 0 128 128" enable-background="new 0 0 128 128" xml:space="preserve">
<path fill="#00000000" opacity="1.000000" stroke="none"
	d="
M1.000000,51.000000
	C1.000000,34.000000 1.000000,17.500000 1.000000,1.000000
	C43.666668,1.000000 86.333336,1.000000 129.000000,1.000000
	C129.000000,43.666668 129.000000,86.333336 129.000000,129.000000
	C86.333336,129.000000 43.666668,129.000000 1.000000,129.000000
	C1.000000,103.166664 1.000000,77.333336 1.000000,51.000000
M64.020645,11.478385
	C58.544235,17.501184 58.990543,23.943027 62.860142,30.641306
	C58.050610,32.046410 58.400230,36.032665 59.234127,39.177181
	C59.774914,41.216408 62.532051,42.667877 64.882385,44.952602
	C64.569550,50.509132 67.497635,55.490536 72.788383,59.475353
	C74.128395,60.484604 74.693108,62.523243 75.899834,64.574654
	C72.345947,65.182388 69.783058,65.620651 67.106651,66.078331
	C66.763382,61.620583 68.303421,56.915833 61.747959,56.959389
	C43.924416,57.077812 26.099411,57.039890 8.275371,56.968086
	C4.488566,56.952835 2.921992,58.545120 2.964130,62.323818
	C3.071861,71.984406 3.126126,81.649376 2.943189,91.307701
	C2.860215,95.688362 4.751421,97.159454 8.908213,97.047462
	C15.509624,96.869598 22.119343,97.000000 28.746344,97.000000
	C28.746344,101.912697 28.746344,106.317383 28.746344,111.110558
	C20.091244,111.110558 11.682750,111.110558 3.255123,111.110558
	C3.255123,116.581917 3.255123,121.652939 3.255123,126.762390
	C44.567940,126.762390 85.625198,126.762390 126.521782,126.762390
	C126.769951,126.393730 126.935204,126.262817 126.935471,126.131561
	C126.964966,111.639397 126.985596,97.147202 126.998596,82.655014
	C127.005615,74.824310 123.823166,70.773727 115.968781,68.998962
	C109.065369,67.439087 102.112236,66.099236 94.174980,64.453613
	C97.826927,57.192162 107.073441,52.948895 105.119987,44.852612
	C107.626221,42.497986 110.332390,41.155243 110.770073,39.282364
	C111.561989,35.893726 111.848763,31.819006 106.798187,30.496939
	C109.970413,24.355330 110.111794,18.293644 106.229507,12.872568
	C99.432014,3.380782 81.848732,-1.102961 72.222710,6.906300
	C70.053490,8.711183 67.189148,9.680620 64.020645,11.478385
z"/>
<path fill="#0f476d" opacity="1.000000" stroke="none"
	d="
M64.332718,11.256515
	C67.189148,9.680620 70.053490,8.711183 72.222710,6.906300
	C81.848732,-1.102961 99.432014,3.380782 106.229507,12.872568
	C110.111794,18.293644 109.970413,24.355330 106.798187,30.496939
	C111.848763,31.819006 111.561989,35.893726 110.770073,39.282364
	C110.332390,41.155243 107.626221,42.497986 105.119987,44.852612
	C107.073441,52.948895 97.826927,57.192162 94.174980,64.453613
	C102.112236,66.099236 109.065369,67.439087 115.968781,68.998962
	C123.823166,70.773727 127.005615,74.824310 126.998596,82.655014
	C126.985596,97.147202 126.964966,111.639397 126.935471,126.131561
	C126.935204,126.262817 126.769951,126.393730 126.521782,126.762390
	C85.625198,126.762390 44.567940,126.762390 3.255123,126.762390
	C3.255123,121.652939 3.255123,116.581917 3.255123,111.110558
	C11.682750,111.110558 20.091244,111.110558 28.746344,111.110558
	C28.746344,106.317383 28.746344,101.912697 28.746344,97.000000
	C22.119343,97.000000 15.509624,96.869598 8.908213,97.047462
	C4.751421,97.159454 2.860215,95.688362 2.943189,91.307701
	C3.126126,81.649376 3.071861,71.984406 2.964130,62.323818
	C2.921992,58.545120 4.488566,56.952835 8.275371,56.968086
	C26.099411,57.039890 43.924416,57.077812 61.747959,56.959389
	C68.303421,56.915833 66.763382,61.620583 67.106651,66.078331
	C69.783058,65.620651 72.345947,65.182388 75.899834,64.574654
	C74.693108,62.523243 74.128395,60.484604 72.788383,59.475353
	C67.497635,55.490536 64.569550,50.509132 64.882385,44.952602
	C62.532051,42.667877 59.774914,41.216408 59.234127,39.177181
	C58.400230,36.032665 58.050610,32.046410 62.860142,30.641306
	C58.990543,23.943027 58.544235,17.501184 64.332718,11.256515
M62.999985,89.348297
	C62.999962,81.527931 62.959541,73.707260 63.020580,65.887367
	C63.043716,62.922894 61.876873,61.036510 58.796341,61.025959
	C42.989422,60.971821 27.180126,60.888672 11.378557,61.184361
	C9.894710,61.212128 7.278435,63.747395 7.198427,65.227165
	C6.776830,73.024727 6.777982,80.869072 7.193725,88.667267
	C7.274339,90.179359 9.750586,92.668762 11.286240,92.801254
	C17.023741,93.296280 22.829592,92.999153 28.991196,92.999153
	C28.991196,86.879181 28.991196,81.137154 28.991196,75.365074
	C33.241661,75.365074 37.090279,75.365074 41.323452,75.365074
	C41.323452,81.469315 41.323452,87.209389 41.323452,92.999893
	C47.703640,92.999893 53.691345,92.964516 59.678207,93.020149
	C61.626366,93.038254 63.488411,93.190033 62.999985,89.348297
M14.563740,115.000000
	C12.119119,115.000000 9.674498,115.000000 7.263404,115.000000
	C7.263404,117.935028 7.263404,120.340027 7.263404,122.737175
	C41.941185,122.737175 76.354919,122.737175 110.733231,122.737175
	C110.733231,120.060471 110.733231,117.654289 110.733231,115.000000
	C78.826729,115.000000 47.186268,115.000000 14.563740,115.000000
M81.815262,31.000000
	C78.559616,29.996021 75.303978,28.992041 71.838783,27.923441
	C67.776329,34.028400 67.902390,45.720528 72.517738,52.025265
	C77.932495,59.422012 89.185051,60.277603 95.702133,53.788082
	C101.913124,47.603359 102.888710,35.057716 97.577881,27.039486
	C93.468330,31.485785 88.081764,31.189726 81.815262,31.000000
M78.470596,73.050476
	C75.258926,68.291222 71.097755,70.942886 67.288399,71.330147
	C67.288399,78.670044 67.288399,85.731865 67.288399,92.745667
	C79.292168,92.745667 91.005791,92.745667 102.803925,92.745667
	C102.803925,85.407661 102.803925,78.325302 102.803925,71.260910
	C94.053802,70.525574 94.053802,70.525574 92.026428,72.490456
	C88.813377,75.604469 83.459702,76.071098 78.470596,73.050476
M77.500549,97.000000
	C71.402870,97.000000 65.305191,97.000000 59.288498,97.000000
	C59.288498,101.982117 59.288498,106.387909 59.288498,110.714539
	C76.647629,110.714539 93.716751,110.714539 110.711540,110.714539
	C110.711540,106.017967 110.711540,101.612175 110.711540,97.000000
	C99.783119,97.000000 89.141769,97.000000 77.500549,97.000000
M76.056786,23.566425
	C81.865952,26.999744 87.990265,27.495186 93.510689,23.639936
	C97.681320,20.727327 100.790436,19.418793 103.705238,25.398361
	C104.709312,19.414524 102.787537,14.971434 98.569565,12.373853
	C92.465508,8.614741 85.798584,5.923557 78.074432,9.425521
	C86.200058,13.719299 86.611320,15.053126 81.259705,18.640453
	C76.269745,13.884342 71.585892,12.476816 68.537613,15.035185
	C65.050812,17.961601 63.608570,21.452715 66.405060,25.710114
	C69.776398,19.783749 69.882896,19.751968 76.056786,23.566425
M121.725433,79.195114
	C119.806213,77.305206 117.886993,75.415298 115.286789,72.854797
	C115.286789,90.478683 115.286789,106.652199 115.286789,122.717995
	C117.984138,122.717995 120.382385,122.717995 121.982689,122.717995
	C121.982689,108.283989 121.982689,94.139847 121.725433,79.195114
M33.000000,93.503952
	C33.000000,99.259171 33.000000,105.014389 33.000000,110.781799
	C34.536133,110.781799 35.606266,110.781799 36.836212,110.781799
	C36.836212,100.193199 36.836212,89.817284 36.836212,79.041496
	C35.493435,79.115410 34.328644,79.179520 33.000000,79.252647
	C33.000000,83.924301 33.000000,88.216354 33.000000,93.503952
M47.000000,106.406006
	C47.000000,107.838463 47.000000,109.270912 47.000000,110.800888
	C49.853657,110.800888 52.238697,110.800888 54.682178,110.800888
	C54.682178,106.097366 54.682178,101.600418 54.682178,97.295464
	C51.968243,97.295464 49.577503,97.295464 47.000000,97.295464
	C47.000000,100.203926 47.000000,102.821228 47.000000,106.406006
M111.000000,77.720680
	C111.000000,76.246109 111.000000,74.771545 111.000000,73.340866
	C109.538528,73.013634 108.369675,72.751915 107.252090,72.501678
	C107.252090,79.352882 107.252090,86.090553 107.252090,92.752670
	C108.578522,92.752670 109.649567,92.752670 111.000000,92.752670
	C111.000000,87.901360 111.000000,83.286438 111.000000,77.720680
M90.748299,63.260258
	C86.891418,63.260258 83.034531,63.260258 78.810715,63.260258
	C80.167496,66.895950 80.566010,70.498085 85.710037,70.099007
	C89.826111,69.779671 89.621361,66.436844 90.748299,63.260258
M41.000015,107.296051
	C41.144497,108.549194 41.288975,109.802345 41.433456,111.055489
	C41.789352,111.004425 42.145248,110.953354 42.501144,110.902290
	C42.501144,106.295181 42.501144,101.688065 42.501144,97.080956
	C42.000763,97.060501 41.500381,97.040047 41.000000,97.019585
	C41.000000,100.133278 41.000000,103.246964 41.000015,107.296051
z"/>
<path fill="#00000000" opacity="1.000000" stroke="none"
	d="
M62.999855,89.833786
	C63.488411,93.190033 61.626366,93.038254 59.678207,93.020149
	C53.691345,92.964516 47.703640,92.999893 41.323452,92.999893
	C41.323452,87.209389 41.323452,81.469315 41.323452,75.365074
	C37.090279,75.365074 33.241661,75.365074 28.991196,75.365074
	C28.991196,81.137154 28.991196,86.879181 28.991196,92.999153
	C22.829592,92.999153 17.023741,93.296280 11.286240,92.801254
	C9.750586,92.668762 7.274339,90.179359 7.193725,88.667267
	C6.777982,80.869072 6.776830,73.024727 7.198427,65.227165
	C7.278435,63.747395 9.894710,61.212128 11.378557,61.184361
	C27.180126,60.888672 42.989422,60.971821 58.796341,61.025959
	C61.876873,61.036510 63.043716,62.922894 63.020580,65.887367
	C62.959541,73.707260 62.999962,81.527931 62.999855,89.833786
z"/>
<path fill="#00000000" opacity="1.000000" stroke="none"
	d="
M15.054775,115.000000
	C47.186268,115.000000 78.826729,115.000000 110.733231,115.000000
	C110.733231,117.654289 110.733231,120.060471 110.733231,122.737175
	C76.354919,122.737175 41.941185,122.737175 7.263404,122.737175
	C7.263404,120.340027 7.263404,117.935028 7.263404,115.000000
	C9.674498,115.000000 12.119119,115.000000 15.054775,115.000000
z"/>
<path fill="#00000000" opacity="1.000000" stroke="none"
	d="
M82.268250,31.000000
	C88.081764,31.189726 93.468330,31.485785 97.577881,27.039486
	C102.888710,35.057716 101.913124,47.603359 95.702133,53.788082
	C89.185051,60.277603 77.932495,59.422012 72.517738,52.025265
	C67.902390,45.720528 67.776329,34.028400 71.838783,27.923441
	C75.303978,28.992041 78.559616,29.996021 82.268250,31.000000
z"/>
<path fill="#00000000" opacity="1.000000" stroke="none"
	d="
M78.772705,73.334900
	C83.459702,76.071098 88.813377,75.604469 92.026428,72.490456
	C94.053802,70.525574 94.053802,70.525574 102.803925,71.260910
	C102.803925,78.325302 102.803925,85.407661 102.803925,92.745667
	C91.005791,92.745667 79.292168,92.745667 67.288399,92.745667
	C67.288399,85.731865 67.288399,78.670044 67.288399,71.330147
	C71.097755,70.942886 75.258926,68.291222 78.772705,73.334900
z"/>
<path fill="#00000000" opacity="1.000000" stroke="none"
	d="
M78.000488,97.000000
	C89.141769,97.000000 99.783119,97.000000 110.711540,97.000000
	C110.711540,101.612175 110.711540,106.017967 110.711540,110.714539
	C93.716751,110.714539 76.647629,110.714539 59.288498,110.714539
	C59.288498,106.387909 59.288498,101.982117 59.288498,97.000000
	C65.305191,97.000000 71.402870,97.000000 78.000488,97.000000
z"/>
<path fill="#00000000" opacity="1.000000" stroke="none"
	d="
M75.775459,23.282074
	C69.882896,19.751968 69.776398,19.783749 66.409065,25.710903
	C63.608570,21.452715 65.050812,17.961601 68.537613,15.035185
	C71.585892,12.476816 76.269745,13.884342 81.259705,18.640453
	C86.611320,15.053126 86.200058,13.719299 78.074432,9.425521
	C85.798584,5.923557 92.465508,8.614741 98.569565,12.373853
	C102.787537,14.971434 104.709312,19.414524 103.705238,25.398361
	C100.790436,19.418793 97.681320,20.727327 93.510689,23.639936
	C87.990265,27.495186 81.865952,26.999744 75.775459,23.282074
z"/>
<path fill="#00000000" opacity="1.000000" stroke="none"
	d="
M121.854065,79.595406
	C121.982689,94.139847 121.982689,108.283989 121.982689,122.717995
	C120.382385,122.717995 117.984138,122.717995 115.286789,122.717995
	C115.286789,106.652199 115.286789,90.478683 115.286789,72.854797
	C117.886993,75.415298 119.806213,77.305206 121.854065,79.595406
z"/>
<path fill="#00000000" opacity="1.000000" stroke="none"
	d="
M33.000000,93.006180
	C33.000000,88.216354 33.000000,83.924301 33.000000,79.252647
	C34.328644,79.179520 35.493435,79.115410 36.836212,79.041496
	C36.836212,89.817284 36.836212,100.193199 36.836212,110.781799
	C35.606266,110.781799 34.536133,110.781799 33.000000,110.781799
	C33.000000,105.014389 33.000000,99.259171 33.000000,93.006180
z"/>
<path fill="#00000000" opacity="1.000000" stroke="none"
	d="
M47.000000,105.922264
	C47.000000,102.821228 47.000000,100.203926 47.000000,97.295464
	C49.577503,97.295464 51.968243,97.295464 54.682178,97.295464
	C54.682178,101.600418 54.682178,106.097366 54.682178,110.800888
	C52.238697,110.800888 49.853657,110.800888 47.000000,110.800888
	C47.000000,109.270912 47.000000,107.838463 47.000000,105.922264
z"/>
<path fill="#00000000" opacity="1.000000" stroke="none"
	d="
M111.000000,78.196098
	C111.000000,83.286438 111.000000,87.901360 111.000000,92.752670
	C109.649567,92.752670 108.578522,92.752670 107.252090,92.752670
	C107.252090,86.090553 107.252090,79.352882 107.252090,72.501678
	C108.369675,72.751915 109.538528,73.013634 111.000000,73.340866
	C111.000000,74.771545 111.000000,76.246109 111.000000,78.196098
z"/>
<path fill="#00000000" opacity="1.000000" stroke="none"
	d="
M90.852798,63.680176
	C89.621361,66.436844 89.826111,69.779671 85.710037,70.099007
	C80.566010,70.498085 80.167496,66.895950 78.810715,63.260258
	C83.034531,63.260258 86.891418,63.260258 90.852798,63.680176
z"/>
<path fill="#00000000" opacity="1.000000" stroke="none"
	d="
M41.000008,106.828354
	C41.000000,103.246964 41.000000,100.133278 41.000000,97.019585
	C41.500381,97.040047 42.000763,97.060501 42.501144,97.080956
	C42.501144,101.688065 42.501144,106.295181 42.501144,110.902290
	C42.145248,110.953354 41.789352,111.004425 41.433456,111.055489
	C41.288975,109.802345 41.144497,108.549194 41.000008,106.828354
z"/>
</svg>