<svg version="1.1" id="Layer_1" xmlns="http://www.w3.org/2000/svg" xmlns:xlink="http://www.w3.org/1999/xlink" x="0px" y="0px"
	 width="100%" viewBox="0 0 128 128" enable-background="new 0 0 90 90" xml:space="preserve">
<path fill="#ffffff00" opacity="1.000000" stroke="none"
	d="
M73.000000,1.000000
	C91.625961,1.000000 110.251923,1.000000 128.938934,1.000000
	C128.938934,43.666645 128.938934,86.333313 128.938934,129.000000
	C123.248032,129.000000 117.593727,129.000000 111.177231,128.684601
	C112.998634,125.032066 114.216209,121.388222 114.077179,117.037186
	C113.811470,108.721664 114.138367,100.388657 113.960312,92.068451
	C113.789085,84.067123 109.286926,75.305168 99.826942,72.985435
	C93.313583,71.388252 86.759315,69.957886 79.057571,68.184540
	C80.150513,64.811676 80.981056,61.415009 82.356476,58.255539
	C83.556473,55.499046 85.349304,52.996964 86.924240,50.409271
	C87.515091,49.438496 88.026222,48.104237 88.922966,47.687813
	C93.377396,45.619301 94.528114,41.986515 93.966270,37.582695
	C93.066605,30.530899 92.105515,23.482857 90.957947,16.467979
	C89.927193,10.167221 83.021843,4.744393 76.163879,5.548368
	C79.889793,11.768934 89.214729,14.778503 86.763496,22.998306
	C72.046310,22.998306 57.650578,22.998306 43.110157,22.998306
	C40.195763,12.272646 59.232010,2.580983 72.490166,6.821360
	C72.670151,4.766309 72.835075,2.883154 73.000000,1.000000
z"/>
<path fill="#0f476d" opacity="1.000000" stroke="none"
	d="
M72.532394,1.000000
	C72.835075,2.883154 72.670151,4.766309 72.490166,6.821360
	C59.232010,2.580983 40.195763,12.272646 43.110157,22.998306
	C57.650578,22.998306 72.046310,22.998306 86.763496,22.998306
	C89.214729,14.778503 79.889793,11.768934 76.163879,5.548368
	C83.021843,4.744393 89.927193,10.167221 90.957947,16.467979
	C92.105515,23.482857 93.066605,30.530899 93.966270,37.582695
	C94.528114,41.986515 93.377396,45.619301 88.922966,47.687813
	C88.026222,48.104237 87.515091,49.438496 86.924240,50.409271
	C85.349304,52.996964 83.556473,55.499046 82.356476,58.255539
	C80.981056,61.415009 80.150513,64.811676 79.057571,68.184540
	C86.759315,69.957886 93.313583,71.388252 99.826942,72.985435
	C109.286926,75.305168 113.789085,84.067123 113.960312,92.068451
	C114.138367,100.388657 113.811470,108.721664 114.077179,117.037186
	C114.216209,121.388222 112.998634,125.032066 110.707527,128.684601
	C80.645775,129.000000 50.291542,129.000000 19.761133,128.684601
	C17.008204,125.035057 15.783050,121.398788 15.922584,117.050995
	C16.189156,108.744705 15.999031,100.423790 16.000269,92.108940
	C16.001566,83.395950 21.446499,75.160423 30.102905,72.997368
	C36.609322,71.371559 43.173363,69.976349 50.302841,68.343063
	C49.939922,65.675034 50.114079,62.638039 49.042995,60.133595
	C47.582726,56.719143 45.180508,53.705990 43.165920,50.531078
	C42.553856,49.566490 42.099789,48.171249 41.211922,47.766899
	C36.272770,45.517509 35.510868,41.478756 36.095665,36.762196
	C36.711670,31.793915 37.293133,26.819746 38.017960,21.866922
	C39.206337,13.746607 42.217278,7.014225 50.998703,4.392582
	C52.839359,3.843065 54.341740,2.160466 56.000000,1.000000
	C61.354931,1.000000 66.709862,1.000000 72.532394,1.000000
M62.416485,115.051819
	C56.432217,117.135658 55.053444,116.226982 55.005787,110.105339
	C54.974998,106.150230 55.000004,102.194687 55.000004,97.895836
	C52.782082,97.895836 51.031597,97.895836 49.218307,97.895836
	C49.218307,96.130013 49.218307,94.727463 49.218307,93.000816
	C64.225906,93.000816 79.019386,92.935799 93.811577,93.045479
	C97.619339,93.073708 99.760109,95.385559 99.971939,99.199654
	C100.114861,101.772934 99.999184,104.360573 99.999184,106.829460
	C103.325386,106.829460 105.945755,106.829460 108.996529,106.829460
	C108.996529,101.053322 109.311264,95.414513 108.916443,89.825829
	C108.428535,82.919624 101.703651,77.486336 93.146049,75.932594
	C89.017967,75.183083 86.585403,75.205406 84.212914,79.920532
	C80.068512,88.157181 77.306381,88.400955 68.459946,85.969604
	C65.702843,85.211845 62.368553,85.456581 59.557472,86.209427
	C52.586582,88.076324 50.537231,87.455208 46.817173,81.512482
	C44.441261,77.717010 42.714016,73.762024 36.257111,75.783806
	C28.173082,78.315048 21.534615,83.143806 21.080267,89.863693
	C20.702448,95.451736 21.002884,101.085640 21.002884,106.772415
	C24.208487,106.772415 26.948944,106.772415 30.000849,106.772415
	C30.000849,104.086159 29.857000,101.612770 30.031275,99.162010
	C30.376892,94.301727 33.255066,92.766830 40.224701,92.936821
	C43.801163,93.024055 44.442852,94.669846 43.704487,97.993156
	C40.950825,97.993156 38.185600,97.993156 35.214134,97.993156
	C35.214134,103.770599 35.214134,109.198639 35.214134,114.900787
	C42.329910,114.535568 45.546551,119.061050 47.635559,124.885574
	C59.345291,124.885574 70.988205,124.885574 82.570847,124.885574
	C84.297264,118.471504 88.188820,114.772972 94.659836,114.729935
	C94.659836,108.905815 94.659836,103.499031 94.659836,98.338959
	C87.908356,98.338959 81.500328,98.338959 74.999962,98.338959
	C74.999962,102.667366 75.052391,106.658104 74.987160,110.646927
	C74.898415,116.072945 72.350983,117.473969 67.519791,115.091194
	C66.233208,114.456657 64.534172,114.658379 62.416485,115.051819
M62.127090,61.654060
	C75.712311,63.128902 83.286789,53.334011 81.614120,35.816410
	C70.503044,35.816410 59.339882,35.816410 48.272537,35.816410
	C46.223476,53.939240 51.312176,57.434563 62.127090,61.654060
M31.487257,117.979034
	C30.291885,112.019897 26.590286,110.743118 21.000786,112.573471
	C21.000786,114.958138 20.489641,117.564461 21.157272,119.822220
	C21.724524,121.740494 23.515614,124.563705 25.000996,124.718102
	C30.584677,125.298485 36.264824,124.950798 41.908833,124.950798
	C42.081936,124.263229 42.255035,123.575653 42.428139,122.888084
	C38.969643,121.446327 35.511150,120.004578 31.487257,117.979034
M88.342758,124.824898
	C93.295540,124.883209 98.310791,125.417076 103.172028,124.778488
	C105.276810,124.501991 107.910149,122.163383 108.771072,120.116844
	C109.744087,117.803871 108.995369,114.766602 108.995369,112.150520
	C104.056068,111.781883 99.795258,111.123947 98.786049,117.238686
	C98.601471,118.357048 96.036369,119.853485 94.585854,119.836464
	C91.244209,119.797234 89.471291,121.462326 88.342758,124.824898
M64.033676,77.542137
	C70.213890,76.183784 75.133873,70.210968 74.796448,64.725578
	C71.627853,65.477859 68.421982,66.836868 65.216637,66.835617
	C61.860111,66.834312 58.504093,65.526611 53.538185,64.436592
	C55.403214,67.733757 56.559189,70.421173 58.301060,72.650879
	C59.667225,74.399658 61.758194,75.582214 64.033676,77.542137
M54.801132,27.000111
	C50.422947,29.074080 43.820671,25.972582 41.187019,32.806858
	C55.352669,29.013607 74.749512,29.015518 88.553116,32.744453
	C87.982948,28.434895 84.525436,28.231371 81.426163,28.054110
	C72.873558,27.564949 64.306206,27.333418 54.801132,27.000111
M60.003998,99.684792
	C60.003998,103.079430 60.003998,106.474060 60.003998,108.702164
	C63.760365,108.871429 66.779648,109.007484 69.811432,109.144096
	C69.811432,105.948410 69.811432,102.174156 69.811432,97.731354
	C66.410439,98.081039 63.233692,98.407677 60.003998,99.684792
M58.696819,79.975342
	C55.304951,78.001633 53.848145,72.454529 48.180679,74.355385
	C48.825249,75.226013 49.479843,75.961273 49.959347,76.796989
	C50.511757,77.759781 50.773396,78.905838 51.399284,79.807022
	C53.485973,82.811539 57.089523,82.889198 58.696819,79.975342
M79.448456,78.038887
	C80.185623,76.785172 80.922783,75.531448 81.699570,74.210342
	C75.450974,72.702934 74.305779,79.132484 69.187576,80.873528
	C73.724358,82.323936 77.048409,83.345284 79.448456,78.038887
z"/>
<path fill="#00000000" opacity="1.000000" stroke="none"
	d="
M55.531342,1.000000
	C54.341740,2.160466 52.839359,3.843065 50.998703,4.392582
	C42.217278,7.014225 39.206337,13.746607 38.017960,21.866922
	C37.293133,26.819746 36.711670,31.793915 36.095665,36.762196
	C35.510868,41.478756 36.272770,45.517509 41.211922,47.766899
	C42.099789,48.171249 42.553856,49.566490 43.165920,50.531078
	C45.180508,53.705990 47.582726,56.719143 49.042995,60.133595
	C50.114079,62.638039 49.939922,65.675034 50.302841,68.343063
	C43.173363,69.976349 36.609322,71.371559 30.102905,72.997368
	C21.446499,75.160423 16.001566,83.395950 16.000269,92.108940
	C15.999031,100.423790 16.189156,108.744705 15.922584,117.050995
	C15.783050,121.398788 17.008204,125.035057 19.292477,128.684601
	C13.013086,129.000000 7.026172,129.000000 1.019629,129.000000
	C1.019629,86.439484 1.019629,43.878956 1.019629,1.000000
	C19.019644,1.000000 37.041164,1.000000 55.531342,1.000000
z"/>
<path fill="#00000000" opacity="1.000000" stroke="none"
	d="
M62.720497,114.763985
	C64.534172,114.658379 66.233208,114.456657 67.519791,115.091194
	C72.350983,117.473969 74.898415,116.072945 74.987160,110.646927
	C75.052391,106.658104 74.999962,102.667366 74.999962,98.338959
	C81.500328,98.338959 87.908356,98.338959 94.659836,98.338959
	C94.659836,103.499031 94.659836,108.905815 94.659836,114.729935
	C88.188820,114.772972 84.297264,118.471504 82.570847,124.885574
	C70.988205,124.885574 59.345291,124.885574 47.635559,124.885574
	C45.546551,119.061050 42.329910,114.535568 35.214134,114.900787
	C35.214134,109.198639 35.214134,103.770599 35.214134,97.993156
	C38.185600,97.993156 40.950825,97.993156 43.704487,97.993156
	C44.442852,94.669846 43.801163,93.024055 40.224701,92.936821
	C33.255066,92.766830 30.376892,94.301727 30.031275,99.162010
	C29.857000,101.612770 30.000849,104.086159 30.000849,106.772415
	C26.948944,106.772415 24.208487,106.772415 21.002884,106.772415
	C21.002884,101.085640 20.702448,95.451736 21.080267,89.863693
	C21.534615,83.143806 28.173082,78.315048 36.257111,75.783806
	C42.714016,73.762024 44.441261,77.717010 46.817173,81.512482
	C50.537231,87.455208 52.586582,88.076324 59.557472,86.209427
	C62.368553,85.456581 65.702843,85.211845 68.459946,85.969604
	C77.306381,88.400955 80.068512,88.157181 84.212914,79.920532
	C86.585403,75.205406 89.017967,75.183083 93.146049,75.932594
	C101.703651,77.486336 108.428535,82.919624 108.916443,89.825829
	C109.311264,95.414513 108.996529,101.053322 108.996529,106.829460
	C105.945755,106.829460 103.325386,106.829460 99.999184,106.829460
	C99.999184,104.360573 100.114861,101.772934 99.971939,99.199654
	C99.760109,95.385559 97.619339,93.073708 93.811577,93.045479
	C79.019386,92.935799 64.225906,93.000816 49.218307,93.000816
	C49.218307,94.727463 49.218307,96.130013 49.218307,97.895836
	C51.031597,97.895836 52.782082,97.895836 55.000004,97.895836
	C55.000004,102.194687 54.974998,106.150230 55.005787,110.105339
	C55.053444,116.226982 56.432217,117.135658 62.720497,114.763985
M99.929558,89.422089
	C100.062332,87.613350 100.516846,85.752083 97.498978,85.954414
	C94.382568,86.163353 91.229668,85.848595 88.117271,86.085464
	C87.060555,86.165886 86.078575,87.228149 85.062439,87.841751
	C86.137856,88.560921 87.175270,89.820831 88.295692,89.899582
	C91.901276,90.153000 95.537491,89.970665 99.929558,89.422089
z"/>
<path fill="#00000000" opacity="1.000000" stroke="none"
	d="
M61.831940,61.360779
	C51.312176,57.434563 46.223476,53.939240 48.272537,35.816410
	C59.339882,35.816410 70.503044,35.816410 81.614120,35.816410
	C83.286789,53.334011 75.712311,63.128902 61.831940,61.360779
z"/>
<path fill="#00000000" opacity="1.000000" stroke="none"
	d="
M31.769955,118.270927
	C35.511150,120.004578 38.969643,121.446327 42.428139,122.888084
	C42.255035,123.575653 42.081936,124.263229 41.908833,124.950798
	C36.264824,124.950798 30.584677,125.298485 25.000996,124.718102
	C23.515614,124.563705 21.724524,121.740494 21.157272,119.822220
	C20.489641,117.564461 21.000786,114.958138 21.000786,112.573471
	C26.590286,110.743118 30.291885,112.019897 31.769955,118.270927
z"/>
<path fill="#00000000" opacity="1.000000" stroke="none"
	d="
M88.192841,124.425644
	C89.471291,121.462326 91.244209,119.797234 94.585854,119.836464
	C96.036369,119.853485 98.601471,118.357048 98.786049,117.238686
	C99.795258,111.123947 104.056068,111.781883 108.995369,112.150520
	C108.995369,114.766602 109.744087,117.803871 108.771072,120.116844
	C107.910149,122.163383 105.276810,124.501991 103.172028,124.778488
	C98.310791,125.417076 93.295540,124.883209 88.192841,124.425644
z"/>
<path fill="#00000000" opacity="1.000000" stroke="none"
	d="
M63.780418,77.279228
	C61.758194,75.582214 59.667225,74.399658 58.301060,72.650879
	C56.559189,70.421173 55.403214,67.733757 53.538185,64.436592
	C58.504093,65.526611 61.860111,66.834312 65.216637,66.835617
	C68.421982,66.836868 71.627853,65.477859 74.796448,64.725578
	C75.133873,70.210968 70.213890,76.183784 63.780418,77.279228
z"/>
<path fill="#00000000" opacity="1.000000" stroke="none"
	d="
M55.272911,27.000057
	C64.306206,27.333418 72.873558,27.564949 81.426163,28.054110
	C84.525436,28.231371 87.982948,28.434895 88.553116,32.744453
	C74.749512,29.015518 55.352669,29.013607 41.187019,32.806858
	C43.820671,25.972582 50.422947,29.074080 55.272911,27.000057
z"/>
<path fill="#00000000" opacity="1.000000" stroke="none"
	d="
M60.030472,99.209549
	C63.233692,98.407677 66.410439,98.081039 69.811432,97.731354
	C69.811432,102.174156 69.811432,105.948410 69.811432,109.144096
	C66.779648,109.007484 63.760365,108.871429 60.003998,108.702164
	C60.003998,106.474060 60.003998,103.079430 60.030472,99.209549
z"/>
<path fill="#00000000" opacity="1.000000" stroke="none"
	d="
M59.067490,80.019798
	C57.089523,82.889198 53.485973,82.811539 51.399284,79.807022
	C50.773396,78.905838 50.511757,77.759781 49.959347,76.796989
	C49.479843,75.961273 48.825249,75.226013 48.180679,74.355385
	C53.848145,72.454529 55.304951,78.001633 59.067490,80.019798
z"/>
<path fill="#00000000" opacity="1.000000" stroke="none"
	d="
M79.238052,78.364769
	C77.048409,83.345284 73.724358,82.323936 69.187576,80.873528
	C74.305779,79.132484 75.450974,72.702934 81.699570,74.210342
	C80.922783,75.531448 80.185623,76.785172 79.238052,78.364769
z"/>
<path fill="#FFFFFF00" opacity="1.000000" stroke="none"
	d="
M99.545723,89.689232
	C95.537491,89.970665 91.901276,90.153000 88.295692,89.899582
	C87.175270,89.820831 86.137856,88.560921 85.062439,87.841751
	C86.078575,87.228149 87.060555,86.165886 88.117271,86.085464
	C91.229668,85.848595 94.382568,86.163353 97.498978,85.954414
	C100.516846,85.752083 100.062332,87.613350 99.545723,89.689232
z"/>
</svg>