<svg version="1.1" id="Layer_1" xmlns="http://www.w3.org/2000/svg" xmlns:xlink="http://www.w3.org/1999/xlink" x="0px" y="0px"
	 width="100%" viewBox="0 0 512 512" enable-background="new 0 0 512 512" xml:space="preserve">
<path fill="#00000000" opacity="1.000000" stroke="none"
	d="
M32.000000,513.000000
	C21.672487,513.000000 11.344975,513.000000 1.013096,513.000000
	C1.008731,342.435272 1.008731,171.870575 1.008731,1.000000
	C78.687294,1.000000 156.374985,1.000000 234.518768,1.391037
	C230.909332,2.908110 226.814468,3.938577 222.783157,5.176020
	C200.194031,12.109940 180.773102,23.879168 164.753845,41.550468
	C151.414703,56.265232 142.698044,73.194740 136.976410,91.987335
	C131.988861,108.368843 132.915939,125.170441 133.106873,141.903687
	C133.160660,146.616165 131.878967,149.999481 128.414963,153.233109
	C120.406143,160.709290 116.501038,170.381226 116.091339,181.156647
	C115.372223,200.069702 128.378433,218.864639 148.089600,222.967056
	C151.542313,223.685654 153.271393,225.425842 154.533020,228.804703
	C159.089066,241.006683 165.396011,252.173325 174.858200,261.419403
	C186.296722,272.596680 197.440720,284.074921 208.840286,295.292755
	C216.611069,302.939667 226.048615,306.929413 237.006104,306.983978
	C250.000870,307.048676 262.996246,306.973755 275.991241,307.007263
	C287.674225,307.037384 297.616821,302.999847 305.863129,294.663269
	C316.056213,284.358612 326.207428,274.005768 336.641144,263.948090
	C344.880371,256.005829 351.940399,247.207748 356.020142,236.542221
	C359.278229,228.024673 363.437592,221.354111 373.516602,220.775467
	C373.959290,220.750061 374.373260,220.302124 374.809021,220.066605
	C401.239197,205.781647 405.878906,172.436920 384.126770,151.802917
	C381.653961,149.457184 380.989532,147.235031 380.937012,144.090988
	C380.714996,130.802429 381.720978,117.276665 379.582397,104.281235
	C374.913391,75.909363 361.731689,51.745827 339.992218,32.336903
	C323.121307,17.274645 303.771149,7.638302 281.778076,2.947118
	C280.759949,2.729947 279.921906,1.668323 279.000000,0.999997
	C356.956085,1.000000 434.912140,1.000000 512.934082,1.000000
	C512.934082,171.666656 512.934082,342.333313 512.927185,513.000000
	C502.925964,513.000000 492.931641,513.000000 482.457153,512.588013
	C481.664032,510.727539 481.283752,509.289856 481.048553,507.828857
	C478.949493,494.790314 476.938049,481.737366 474.780914,468.708527
	C471.222900,447.218536 467.591919,425.740509 463.960968,404.262665
	C460.785645,385.480133 452.801819,368.980408 439.632599,355.242493
	C428.561737,343.693604 415.066498,335.924774 399.796936,331.008087
	C378.681213,324.208923 357.665253,317.096405 336.671082,309.929108
	C334.876068,309.316254 332.469635,307.463440 332.213959,305.884399
	C330.943359,298.037292 331.163727,298.000336 323.306244,298.001099
	C321.473969,298.001282 319.636505,298.104126 317.810669,297.999146
	C315.034058,297.839447 313.762177,299.053558 314.025055,301.816437
	C315.218109,314.354279 310.948303,325.981506 308.299133,337.921326
	C306.931366,344.085876 305.507233,348.946655 298.276733,350.620819
	C295.173706,351.339294 293.429138,351.370178 291.518799,349.039032
	C285.651215,341.878998 279.657623,334.820770 273.872528,327.595306
	C271.441986,324.559631 268.912720,322.586884 264.665894,322.913025
	C259.698059,323.294495 254.659729,323.269226 249.686905,322.921173
	C245.332474,322.616486 242.642456,324.457947 240.077011,327.738983
	C234.477081,334.900970 228.582413,341.837036 222.659012,348.737396
	C221.576172,349.998871 219.734192,351.522400 218.332626,351.437622
	C212.423462,351.080078 207.944702,347.063110 206.582016,341.103119
	C204.266159,330.974121 201.151901,320.881805 200.259491,310.610168
	C199.146545,297.800140 199.972031,297.881256 187.016830,297.914429
	C183.037491,297.924622 181.441956,299.254608 182.019257,303.093079
	C182.652740,307.305145 180.789444,308.999512 176.740494,310.300079
	C154.833847,317.336548 132.992599,324.590027 111.245308,332.105743
	C87.866341,340.185364 70.226501,355.086761 58.873524,377.268066
	C53.133667,388.482544 50.743645,400.518311 48.771523,412.829010
	C43.416477,446.257080 37.620922,479.614532 32.000000,513.000000
z"/>
<path fill="#0F476D" opacity="1.000000" stroke="none"
	d="
M32.468658,513.000000
	C37.620922,479.614532 43.416477,446.257080 48.771523,412.829010
	C50.743645,400.518311 53.133667,388.482544 58.873524,377.268066
	C70.226501,355.086761 87.866341,340.185364 111.245308,332.105743
	C132.992599,324.590027 154.833847,317.336548 176.740494,310.300079
	C180.789444,308.999512 182.652740,307.305145 182.019257,303.093079
	C181.441956,299.254608 183.037491,297.924622 187.016830,297.914429
	C199.972031,297.881256 199.146545,297.800140 200.259491,310.610168
	C201.151901,320.881805 204.266159,330.974121 206.582016,341.103119
	C207.944702,347.063110 212.423462,351.080078 218.332626,351.437622
	C219.734192,351.522400 221.576172,349.998871 222.659012,348.737396
	C228.582413,341.837036 234.477081,334.900970 240.077011,327.738983
	C242.642456,324.457947 245.332474,322.616486 249.686905,322.921173
	C254.659729,323.269226 259.698059,323.294495 264.665894,322.913025
	C268.912720,322.586884 271.441986,324.559631 273.872528,327.595306
	C279.657623,334.820770 285.651215,341.878998 291.518799,349.039032
	C293.429138,351.370178 295.173706,351.339294 298.276733,350.620819
	C305.507233,348.946655 306.931366,344.085876 308.299133,337.921326
	C310.948303,325.981506 315.218109,314.354279 314.025055,301.816437
	C313.762177,299.053558 315.034058,297.839447 317.810669,297.999146
	C319.636505,298.104126 321.473969,298.001282 323.306244,298.001099
	C331.163727,298.000336 330.943359,298.037292 332.213959,305.884399
	C332.469635,307.463440 334.876068,309.316254 336.671082,309.929108
	C357.665253,317.096405 378.681213,324.208923 399.796936,331.008087
	C415.066498,335.924774 428.561737,343.693604 439.632599,355.242493
	C452.801819,368.980408 460.785645,385.480133 463.960968,404.262665
	C467.591919,425.740509 471.222900,447.218536 474.780914,468.708527
	C476.938049,481.737366 478.949493,494.790314 481.048553,507.828857
	C481.283752,509.289856 481.664032,510.727539 481.988525,512.588013
	C332.312439,513.000000 182.624878,513.000000 32.468658,513.000000
M223.008484,424.528503
	C219.525360,426.065826 216.092651,427.731903 212.550430,429.118286
	C196.856064,435.260803 178.123993,425.821869 175.167389,409.241058
	C173.467499,399.707886 174.507629,389.710571 173.951248,379.942902
	C173.233902,367.349670 177.812897,357.674042 188.648087,351.015564
	C189.392761,350.557922 190.178894,349.149872 190.012985,348.386536
	C188.446030,341.176880 186.676376,334.011261 184.896545,326.545105
	C182.720001,327.140045 181.282043,327.463531 179.889648,327.924561
	C166.216125,332.451721 152.594681,337.143677 138.853897,341.455597
	C134.938873,342.684113 133.929123,344.677002 133.906311,348.599976
	C133.750565,375.384705 133.602341,402.175293 132.871368,428.948120
	C132.560440,440.336365 130.898300,451.691010 129.765869,463.052551
	C128.691147,473.835266 127.506233,484.607025 126.343521,495.632599
	C152.908417,495.632599 178.798141,495.632599 205.157639,495.632599
	C204.900162,492.790314 204.786194,490.334290 204.439880,487.911469
	C202.687057,475.648926 200.771210,463.407776 199.242859,451.118042
	C199.092285,449.907349 200.984406,447.512177 202.276779,447.222870
	C206.557892,446.264404 210.998489,446.018280 215.619736,445.470154
	C216.117020,447.288788 216.712784,448.834900 216.949921,450.434204
	C218.983368,464.148193 221.184662,477.844543 222.794357,491.609497
	C223.261658,495.605499 224.921310,496.052704 228.168091,496.038147
	C247.494171,495.951508 266.820862,496.003662 286.147308,495.976196
	C287.594452,495.974152 289.041229,495.715057 290.618713,495.562897
	C293.107574,478.606506 295.544373,462.005005 297.984467,445.381042
	C302.934021,445.999603 307.012573,446.699982 311.118988,446.960602
	C314.249481,447.159302 315.295563,448.706879 314.884216,451.487366
	C313.748810,459.161957 312.428375,466.809723 311.342865,474.490967
	C310.359314,481.450623 309.588867,488.440369 308.699005,495.622131
	C335.471344,495.622131 361.371704,495.622131 387.426300,495.622131
	C386.926270,489.313385 386.510834,483.387787 385.974213,477.473175
	C385.286835,469.897491 384.510864,462.329773 383.756897,454.760193
	C382.512360,442.265228 380.485901,429.791016 380.169495,417.273132
	C379.584503,394.129395 379.981018,370.960388 380.018768,347.802002
	C380.023071,345.168030 379.901428,343.026154 376.750702,341.999603
	C362.099792,337.226227 347.490112,332.324188 332.906250,327.349213
	C330.186615,326.421478 328.832977,327.285034 328.188293,329.825256
	C326.806732,335.269165 325.439850,340.716949 324.107941,346.173157
	C323.462921,348.815308 324.147980,350.387299 326.775146,352.100555
	C335.170776,357.575684 340.016724,365.384186 340.000244,375.744995
	C339.985413,385.074982 340.097900,394.406433 339.971954,403.734772
	C339.744110,420.610321 322.746552,434.461090 306.458862,429.991608
	C296.858276,427.357178 287.751465,422.673340 278.723846,418.290680
	C272.921753,415.473846 267.221863,414.128082 260.728027,413.778320
	C249.190918,413.156891 238.695206,415.212219 229.001724,421.493134
	C227.343277,422.567719 225.444244,423.270996 223.008484,424.528503
M116.000267,409.498962
	C116.000267,389.730682 116.000267,369.962372 116.000267,349.821381
	C114.225311,350.136841 113.019325,350.120026 112.017914,350.564331
	C99.551720,356.094818 89.066978,364.114136 80.940781,375.175781
	C72.064240,387.258850 68.140678,401.052612 65.937683,415.653473
	C63.032326,434.909454 59.573509,454.081635 56.388718,473.295807
	C55.183342,480.567963 54.078445,487.856750 52.943821,495.036255
	C54.008419,495.473419 54.460323,495.820068 54.913532,495.821808
	C71.895988,495.886688 88.878670,495.897156 105.861015,495.978912
	C108.749214,495.992798 108.836288,494.214844 109.027809,492.044312
	C109.986862,481.175293 111.168907,470.325592 112.090561,459.453644
	C113.473366,443.141907 114.704659,426.817291 116.000267,409.498962
M440.877930,388.688446
	C432.149170,369.919861 418.393799,356.741180 397.999695,349.214020
	C397.999695,365.963593 397.864868,381.437134 398.041290,396.907135
	C398.189026,409.861420 398.154144,422.855103 399.181671,435.753113
	C400.637512,454.028107 403.270416,472.208466 404.783966,490.480316
	C405.187775,495.354797 406.872467,496.125214 411.062927,496.070892
	C425.553650,495.882935 440.048309,496.009430 454.541412,495.986420
	C456.494812,495.983337 458.447937,495.809906 461.132965,495.679871
	C460.226624,489.852509 459.447815,484.524597 458.563263,479.214264
	C455.062744,458.199066 451.754425,437.147949 447.902618,416.196960
	C446.240479,407.156128 443.428894,398.326630 440.877930,388.688446
M323.000610,390.487854
	C322.994995,386.662201 323.175842,382.825470 322.948547,379.013031
	C322.287842,367.931854 314.293579,360.907288 303.783936,367.531860
	C301.552216,368.938538 299.011841,369.845764 296.674286,371.096436
	C291.880066,373.661499 285.287262,375.198517 282.870850,379.222198
	C280.423004,383.298279 282.119965,389.864227 282.005402,395.339661
	C281.994965,395.838318 281.833252,396.439606 282.048737,396.818756
	C282.945618,398.396790 283.598236,400.573883 284.992401,401.331390
	C291.978516,405.127350 299.094635,408.708130 306.311310,412.048615
	C313.083527,415.183411 320.465668,411.581696 321.970673,404.279938
	C322.828552,400.117798 322.690308,395.750366 323.000610,390.487854
M232.000031,390.445953
	C231.999664,388.282318 231.754730,386.084534 232.051117,383.962341
	C232.624939,379.853424 230.802139,377.725250 227.163376,376.074707
	C220.692825,373.139679 214.475433,369.652222 208.080688,366.542816
	C200.659103,362.934143 193.265472,365.938568 192.214539,374.071991
	C191.011963,383.379120 190.583038,392.997650 191.513962,402.311401
	C192.507706,412.253601 200.661850,415.581665 209.870773,411.038757
	C214.630402,408.690796 219.224075,405.907104 224.168777,404.058716
	C230.321243,401.758911 233.426025,398.131134 232.000031,390.445953
M274.407867,356.028900
	C270.568726,351.480713 266.891998,346.781372 262.842102,342.429352
	C259.219269,338.536255 254.297836,338.846558 250.715347,342.828430
	C248.953964,344.786224 247.301605,346.843811 245.636978,348.886475
	C242.579544,352.638275 239.549576,356.412476 236.470474,360.223938
	C244.757706,365.678070 270.181763,365.500031 277.114594,360.315186
	C276.342896,359.081085 275.567810,357.841522 274.407867,356.028900
M264.999329,387.587402
	C264.997864,387.091125 265.129517,386.546906 264.971222,386.107086
	C264.369598,384.435669 263.720398,381.399078 263.006470,381.375519
	C258.493103,381.226746 253.954575,381.716553 249.439178,382.150146
	C249.230713,382.170135 249.082657,383.667175 249.049072,384.482178
	C248.980988,386.133972 249.001236,387.789795 249.001816,389.443939
	C249.004501,396.992767 249.006943,397.043213 256.463257,396.988037
	C266.070618,396.916992 264.867340,397.986633 264.999329,387.587402
z"/>
<path fill="#0F476D" opacity="1.000000" stroke="none"
	d="
M278.531342,0.999997
	C279.921906,1.668323 280.759949,2.729947 281.778076,2.947118
	C303.771149,7.638302 323.121307,17.274645 339.992218,32.336903
	C361.731689,51.745827 374.913391,75.909363 379.582397,104.281235
	C381.720978,117.276665 380.714996,130.802429 380.937012,144.090988
	C380.989532,147.235031 381.653961,149.457184 384.126770,151.802917
	C405.878906,172.436920 401.239197,205.781647 374.809021,220.066605
	C374.373260,220.302124 373.959290,220.750061 373.516602,220.775467
	C363.437592,221.354111 359.278229,228.024673 356.020142,236.542221
	C351.940399,247.207748 344.880371,256.005829 336.641144,263.948090
	C326.207428,274.005768 316.056213,284.358612 305.863129,294.663269
	C297.616821,302.999847 287.674225,307.037384 275.991241,307.007263
	C262.996246,306.973755 250.000870,307.048676 237.006104,306.983978
	C226.048615,306.929413 216.611069,302.939667 208.840286,295.292755
	C197.440720,284.074921 186.296722,272.596680 174.858200,261.419403
	C165.396011,252.173325 159.089066,241.006683 154.533020,228.804703
	C153.271393,225.425842 151.542313,223.685654 148.089600,222.967056
	C128.378433,218.864639 115.372223,200.069702 116.091339,181.156647
	C116.501038,170.381226 120.406143,160.709290 128.414963,153.233109
	C131.878967,149.999481 133.160660,146.616165 133.106873,141.903687
	C132.915939,125.170441 131.988861,108.368843 136.976410,91.987335
	C142.698044,73.194740 151.414703,56.265232 164.753845,41.550468
	C180.773102,23.879168 200.194031,12.109940 222.783157,5.176020
	C226.814468,3.938577 230.909332,2.908110 234.987427,1.391037
	C249.354233,1.000000 263.708466,1.000000 278.531342,0.999997
M151.001190,112.549675
	C150.668793,122.829002 149.972992,133.113785 150.126953,143.385818
	C150.236465,150.693451 151.619308,157.943527 156.143738,164.463837
	C157.214096,163.304825 157.959717,162.626587 158.553970,161.834747
	C168.769287,148.222931 182.178055,140.908447 199.390350,140.993118
	C208.384583,141.037354 217.459229,141.757507 226.354263,140.816971
	C238.619415,139.520111 251.248718,138.428299 262.812042,134.541443
	C277.708679,129.534134 291.781464,122.007584 306.020203,115.172585
	C308.664368,113.903305 309.948517,114.223740 311.440125,116.120781
	C312.358673,117.288994 313.127289,118.578239 313.927338,119.835976
	C325.147003,137.473907 346.333832,143.381866 364.424164,140.146942
	C363.898621,129.828888 364.278290,119.261932 362.663086,109.009239
	C358.139069,80.292351 343.982208,56.857552 320.751587,39.411983
	C296.694244,21.345579 269.343323,14.434218 239.670181,19.411358
	C212.491928,23.970020 190.377167,37.602192 173.068924,59.302734
	C160.721710,74.783287 153.787613,92.270760 151.001190,112.549675
M330.004028,245.440048
	C330.874847,244.246613 331.716980,243.030991 332.620972,241.863220
	C341.174866,230.813049 346.130798,218.206451 346.843445,204.380630
	C347.545624,190.757584 346.790802,177.065048 347.120789,163.413773
	C347.220673,159.283157 345.532654,157.665436 342.035309,157.187515
	C331.080933,155.690521 320.480377,152.138580 313.047852,144.234283
	C304.844147,135.509842 298.311432,138.379288 289.748657,142.883270
	C270.113556,153.211258 249.007782,158.397171 226.665512,158.022705
	C218.172546,157.880356 209.661530,157.696808 201.182770,158.073227
	C186.447037,158.727402 174.534958,164.908691 169.307831,179.158707
	C166.843506,185.876923 167.078766,193.803955 167.116440,201.177994
	C167.207565,219.020004 173.904007,234.538666 186.051224,247.404205
	C197.596558,259.632263 209.561127,271.489258 221.809845,283.011353
	C224.955963,285.970856 229.762726,288.419403 233.988022,288.744507
	C247.213989,289.762177 260.532135,290.032104 273.803650,289.840057
	C281.843689,289.723724 289.056641,287.122437 295.025177,280.720764
	C306.150635,268.787903 317.982666,257.513763 330.004028,245.440048
M378.613129,191.750015
	C382.741333,178.146347 376.098694,162.765381 365.303833,161.605423
	C365.303833,175.677856 365.303833,189.718674 365.303833,204.304871
	C371.950226,202.438690 375.100220,197.459061 378.613129,191.750015
M148.885513,186.349045
	C145.236328,181.010208 141.587143,175.671387 137.880585,170.248611
	C128.048279,183.265045 138.029663,202.906464 148.956802,203.591934
	C148.956802,198.116394 148.956802,192.659119 148.885513,186.349045
z"/>
<path fill="#00000000" opacity="1.000000" stroke="none"
	d="
M223.332413,424.337158
	C225.444244,423.270996 227.343277,422.567719 229.001724,421.493134
	C238.695206,415.212219 249.190918,413.156891 260.728027,413.778320
	C267.221863,414.128082 272.921753,415.473846 278.723846,418.290680
	C287.751465,422.673340 296.858276,427.357178 306.458862,429.991608
	C322.746552,434.461090 339.744110,420.610321 339.971954,403.734772
	C340.097900,394.406433 339.985413,385.074982 340.000244,375.744995
	C340.016724,365.384186 335.170776,357.575684 326.775146,352.100555
	C324.147980,350.387299 323.462921,348.815308 324.107941,346.173157
	C325.439850,340.716949 326.806732,335.269165 328.188293,329.825256
	C328.832977,327.285034 330.186615,326.421478 332.906250,327.349213
	C347.490112,332.324188 362.099792,337.226227 376.750702,341.999603
	C379.901428,343.026154 380.023071,345.168030 380.018768,347.802002
	C379.981018,370.960388 379.584503,394.129395 380.169495,417.273132
	C380.485901,429.791016 382.512360,442.265228 383.756897,454.760193
	C384.510864,462.329773 385.286835,469.897491 385.974213,477.473175
	C386.510834,483.387787 386.926270,489.313385 387.426300,495.622131
	C361.371704,495.622131 335.471344,495.622131 308.699005,495.622131
	C309.588867,488.440369 310.359314,481.450623 311.342865,474.490967
	C312.428375,466.809723 313.748810,459.161957 314.884216,451.487366
	C315.295563,448.706879 314.249481,447.159302 311.118988,446.960602
	C307.012573,446.699982 302.934021,445.999603 297.984467,445.381042
	C295.544373,462.005005 293.107574,478.606506 290.618713,495.562897
	C289.041229,495.715057 287.594452,495.974152 286.147308,495.976196
	C266.820862,496.003662 247.494171,495.951508 228.168091,496.038147
	C224.921310,496.052704 223.261658,495.605499 222.794357,491.609497
	C221.184662,477.844543 218.983368,464.148193 216.949921,450.434204
	C216.712784,448.834900 216.117020,447.288788 215.619736,445.470154
	C210.998489,446.018280 206.557892,446.264404 202.276779,447.222870
	C200.984406,447.512177 199.092285,449.907349 199.242859,451.118042
	C200.771210,463.407776 202.687057,475.648926 204.439880,487.911469
	C204.786194,490.334290 204.900162,492.790314 205.157639,495.632599
	C178.798141,495.632599 152.908417,495.632599 126.343521,495.632599
	C127.506233,484.607025 128.691147,473.835266 129.765869,463.052551
	C130.898300,451.691010 132.560440,440.336365 132.871368,428.948120
	C133.602341,402.175293 133.750565,375.384705 133.906311,348.599976
	C133.929123,344.677002 134.938873,342.684113 138.853897,341.455597
	C152.594681,337.143677 166.216125,332.451721 179.889648,327.924561
	C181.282043,327.463531 182.720001,327.140045 184.896545,326.545105
	C186.676376,334.011261 188.446030,341.176880 190.012985,348.386536
	C190.178894,349.149872 189.392761,350.557922 188.648087,351.015564
	C177.812897,357.674042 173.233902,367.349670 173.951248,379.942902
	C174.507629,389.710571 173.467499,399.707886 175.167389,409.241058
	C178.123993,425.821869 196.856064,435.260803 212.550430,429.118286
	C216.092651,427.731903 219.525360,426.065826 223.332413,424.337158
M259.374115,430.001099
	C247.987381,429.998566 247.987366,429.998566 248.001907,439.613342
	C248.013062,446.984253 248.013077,446.984283 255.147415,446.999603
	C266.091980,447.023102 265.908722,447.020142 266.087341,435.873077
	C266.157867,431.469879 265.009644,429.248779 259.374115,430.001099
M249.955200,479.845459
	C254.091721,479.888123 258.254120,480.203278 262.349670,479.814209
	C263.646484,479.691010 265.681366,477.791199 265.823853,476.528961
	C267.361206,462.907898 267.222290,462.837219 253.585541,463.006470
	C252.428024,463.020844 251.201019,462.870880 250.137497,463.209442
	C249.362579,463.456055 248.222565,464.398804 248.240448,465.001678
	C248.384735,469.865814 248.764954,474.722961 249.955200,479.845459
z"/>
<path fill="#00000000" opacity="1.000000" stroke="none"
	d="
M116.000320,409.998566
	C114.704659,426.817291 113.473366,443.141907 112.090561,459.453644
	C111.168907,470.325592 109.986862,481.175293 109.027809,492.044312
	C108.836288,494.214844 108.749214,495.992798 105.861015,495.978912
	C88.878670,495.897156 71.895988,495.886688 54.913532,495.821808
	C54.460323,495.820068 54.008419,495.473419 52.943821,495.036255
	C54.078445,487.856750 55.183342,480.567963 56.388718,473.295807
	C59.573509,454.081635 63.032326,434.909454 65.937683,415.653473
	C68.140678,401.052612 72.064240,387.258850 80.940781,375.175781
	C89.066978,364.114136 99.551720,356.094818 112.017914,350.564331
	C113.019325,350.120026 114.225311,350.136841 116.000267,349.821381
	C116.000267,369.962372 116.000267,389.730682 116.000320,409.998566
z"/>
<path fill="#00000000" opacity="1.000000" stroke="none"
	d="
M441.008667,389.044800
	C443.428894,398.326630 446.240479,407.156128 447.902618,416.196960
	C451.754425,437.147949 455.062744,458.199066 458.563263,479.214264
	C459.447815,484.524597 460.226624,489.852509 461.132965,495.679871
	C458.447937,495.809906 456.494812,495.983337 454.541412,495.986420
	C440.048309,496.009430 425.553650,495.882935 411.062927,496.070892
	C406.872467,496.125214 405.187775,495.354797 404.783966,490.480316
	C403.270416,472.208466 400.637512,454.028107 399.181671,435.753113
	C398.154144,422.855103 398.189026,409.861420 398.041290,396.907135
	C397.864868,381.437134 397.999695,365.963593 397.999695,349.214020
	C418.393799,356.741180 432.149170,369.919861 441.008667,389.044800
z"/>
<path fill="#00000000" opacity="1.000000" stroke="none"
	d="
M323.000610,390.981628
	C322.690308,395.750366 322.828552,400.117798 321.970673,404.279938
	C320.465668,411.581696 313.083527,415.183411 306.311310,412.048615
	C299.094635,408.708130 291.978516,405.127350 284.992401,401.331390
	C283.598236,400.573883 282.945618,398.396790 282.048737,396.818756
	C281.833252,396.439606 281.994965,395.838318 282.005402,395.339661
	C282.119965,389.864227 280.423004,383.298279 282.870850,379.222198
	C285.287262,375.198517 291.880066,373.661499 296.674286,371.096436
	C299.011841,369.845764 301.552216,368.938538 303.783936,367.531860
	C314.293579,360.907288 322.287842,367.931854 322.948547,379.013031
	C323.175842,382.825470 322.994995,386.662201 323.000610,390.981628
z"/>
<path fill="#00000000" opacity="1.000000" stroke="none"
	d="
M232.000031,390.927490
	C233.426025,398.131134 230.321243,401.758911 224.168777,404.058716
	C219.224075,405.907104 214.630402,408.690796 209.870773,411.038757
	C200.661850,415.581665 192.507706,412.253601 191.513962,402.311401
	C190.583038,392.997650 191.011963,383.379120 192.214539,374.071991
	C193.265472,365.938568 200.659103,362.934143 208.080688,366.542816
	C214.475433,369.652222 220.692825,373.139679 227.163376,376.074707
	C230.802139,377.725250 232.624939,379.853424 232.051117,383.962341
	C231.754730,386.084534 231.999664,388.282318 232.000031,390.927490
z"/>
<path fill="#00000000" opacity="1.000000" stroke="none"
	d="
M274.600281,356.315430
	C275.567810,357.841522 276.342896,359.081085 277.114594,360.315186
	C270.181763,365.500031 244.757706,365.678070 236.470474,360.223938
	C239.549576,356.412476 242.579544,352.638275 245.636978,348.886475
	C247.301605,346.843811 248.953964,344.786224 250.715347,342.828430
	C254.297836,338.846558 259.219269,338.536255 262.842102,342.429352
	C266.891998,346.781372 270.568726,351.480713 274.600281,356.315430
z"/>
<path fill="#00000000" opacity="1.000000" stroke="none"
	d="
M264.999573,388.059845
	C264.867340,397.986633 266.070618,396.916992 256.463257,396.988037
	C249.006943,397.043213 249.004501,396.992767 249.001816,389.443939
	C249.001236,387.789795 248.980988,386.133972 249.049072,384.482178
	C249.082657,383.667175 249.230713,382.170135 249.439178,382.150146
	C253.954575,381.716553 258.493103,381.226746 263.006470,381.375519
	C263.720398,381.399078 264.369598,384.435669 264.971222,386.107086
	C265.129517,386.546906 264.997864,387.091125 264.999573,388.059845
z"/>
<path fill="#00000000" opacity="1.000000" stroke="none"
	d="
M151.004395,112.097549
	C153.787613,92.270760 160.721710,74.783287 173.068924,59.302734
	C190.377167,37.602192 212.491928,23.970020 239.670181,19.411358
	C269.343323,14.434218 296.694244,21.345579 320.751587,39.411983
	C343.982208,56.857552 358.139069,80.292351 362.663086,109.009239
	C364.278290,119.261932 363.898621,129.828888 364.424164,140.146942
	C346.333832,143.381866 325.147003,137.473907 313.927338,119.835976
	C313.127289,118.578239 312.358673,117.288994 311.440125,116.120781
	C309.948517,114.223740 308.664368,113.903305 306.020203,115.172585
	C291.781464,122.007584 277.708679,129.534134 262.812042,134.541443
	C251.248718,138.428299 238.619415,139.520111 226.354263,140.816971
	C217.459229,141.757507 208.384583,141.037354 199.390350,140.993118
	C182.178055,140.908447 168.769287,148.222931 158.553970,161.834747
	C157.959717,162.626587 157.214096,163.304825 156.143738,164.463837
	C151.619308,157.943527 150.236465,150.693451 150.126953,143.385818
	C149.972992,133.113785 150.668793,122.829002 151.004395,112.097549
z"/>
<path fill="#00000000" opacity="1.000000" stroke="none"
	d="
M329.762329,245.702759
	C317.982666,257.513763 306.150635,268.787903 295.025177,280.720764
	C289.056641,287.122437 281.843689,289.723724 273.803650,289.840057
	C260.532135,290.032104 247.213989,289.762177 233.988022,288.744507
	C229.762726,288.419403 224.955963,285.970856 221.809845,283.011353
	C209.561127,271.489258 197.596558,259.632263 186.051224,247.404205
	C173.904007,234.538666 167.207565,219.020004 167.116440,201.177994
	C167.078766,193.803955 166.843506,185.876923 169.307831,179.158707
	C174.534958,164.908691 186.447037,158.727402 201.182770,158.073227
	C209.661530,157.696808 218.172546,157.880356 226.665512,158.022705
	C249.007782,158.397171 270.113556,153.211258 289.748657,142.883270
	C298.311432,138.379288 304.844147,135.509842 313.047852,144.234283
	C320.480377,152.138580 331.080933,155.690521 342.035309,157.187515
	C345.532654,157.665436 347.220673,159.283157 347.120789,163.413773
	C346.790802,177.065048 347.545624,190.757584 346.843445,204.380630
	C346.130798,218.206451 341.174866,230.813049 332.620972,241.863220
	C331.716980,243.030991 330.874847,244.246613 329.762329,245.702759
z"/>
<path fill="#00000000" opacity="1.000000" stroke="none"
	d="
M378.403625,192.083405
	C375.100220,197.459061 371.950226,202.438690 365.303833,204.304871
	C365.303833,189.718674 365.303833,175.677856 365.303833,161.605423
	C376.098694,162.765381 382.741333,178.146347 378.403625,192.083405
z"/>
<path fill="#00000000" opacity="1.000000" stroke="none"
	d="
M148.921158,186.775452
	C148.956802,192.659119 148.956802,198.116394 148.956802,203.591934
	C138.029663,202.906464 128.048279,183.265045 137.880585,170.248611
	C141.587143,175.671387 145.236328,181.010208 148.921158,186.775452
z"/>
<path fill="#0F476D" opacity="1.000000" stroke="none"
	d="
M259.845032,430.001953
	C265.009644,429.248779 266.157867,431.469879 266.087341,435.873077
	C265.908722,447.020142 266.091980,447.023102 255.147415,446.999603
	C248.013077,446.984283 248.013062,446.984253 248.001907,439.613342
	C247.987366,429.998566 247.987381,429.998566 259.845032,430.001953
z"/>
<path fill="#0F476D" opacity="1.000000" stroke="none"
	d="
M249.514175,479.713867
	C248.764954,474.722961 248.384735,469.865814 248.240448,465.001678
	C248.222565,464.398804 249.362579,463.456055 250.137497,463.209442
	C251.201019,462.870880 252.428024,463.020844 253.585541,463.006470
	C267.222290,462.837219 267.361206,462.907898 265.823853,476.528961
	C265.681366,477.791199 263.646484,479.691010 262.349670,479.814209
	C258.254120,480.203278 254.091721,479.888123 249.514175,479.713867
z"/>
</svg>