<svg version="1.1" id="Layer_1" xmlns="http://www.w3.org/2000/svg" xmlns:xlink="http://www.w3.org/1999/xlink" x="0px" y="0px"
	 width="100%" viewBox="0 0 512 512" enable-background="new 0 0 512 512" xml:space="preserve">
<path fill="#00000000" opacity="1.000000" stroke="none"
	d="
M174.000000,1.000001
	C286.954987,1.000000 399.910004,1.000000 512.932495,1.000000
	C512.932495,171.553680 512.932495,342.107422 512.932495,513.000000
	C435.311005,513.000000 357.621552,513.000000 279.406799,512.645874
	C284.272400,506.959167 285.275726,500.320496 285.066010,493.088470
	C284.795593,483.763489 284.983917,474.424622 285.022003,465.091919
	C285.027374,463.769714 285.299622,462.448608 285.478546,460.858612
	C286.431122,461.364868 286.816315,461.444733 286.991638,461.680603
	C298.763458,477.515930 315.119141,483.588715 333.845520,480.635864
	C352.176025,477.745422 364.627899,466.199402 371.021637,448.499390
	C375.850708,435.130981 380.886414,421.837128 385.698242,408.462616
	C388.944458,399.439728 392.161041,390.396149 394.996338,381.239655
	C396.420715,376.639679 393.705780,372.485931 389.329193,371.260864
	C385.644226,370.229401 381.573151,372.538666 379.984497,376.822754
	C375.903534,387.827881 372.001801,398.899689 367.891937,409.893829
	C363.147339,422.585907 358.916199,435.526062 353.276825,447.814545
	C344.508911,466.920349 319.270386,471.005798 303.808960,456.394745
	C297.179962,450.130280 295.191803,441.672394 291.902710,433.767670
	C287.417816,422.989166 284.080994,412.202454 284.806976,400.119354
	C285.645081,386.170502 285.047607,372.132202 284.952209,358.133606
	C284.936676,355.855377 284.572540,353.492554 283.880676,351.324860
	C282.602081,347.318939 279.597961,345.268951 275.448212,346.186340
	C271.662476,347.023285 268.895416,349.146454 268.970703,353.737793
	C269.104584,361.901764 269.020020,370.069702 268.983795,378.235779
	C268.976959,379.777618 268.769897,381.318604 268.603790,383.551025
	C252.739014,371.776245 247.615814,356.770844 250.675110,338.545013
	C252.150558,329.754944 253.524368,320.947418 255.057175,312.167542
	C256.699158,302.762360 258.473907,293.380432 260.527283,282.147186
	C267.396576,287.537720 273.810699,291.634094 279.061188,296.892426
	C289.036163,306.882263 295.146790,319.284760 299.430145,332.706512
	C303.756470,346.262970 308.656006,359.636139 313.029205,373.178436
	C313.820801,375.629639 313.856506,378.651154 313.236542,381.161255
	C312.092438,385.793274 310.097137,390.207733 308.653961,394.775238
	C307.035156,399.898438 309.079865,404.275818 313.520416,405.681396
	C317.932861,407.078094 322.253632,404.626465 324.000885,399.745605
	C333.032501,374.516479 342.041321,349.279114 351.121185,324.067383
	C352.943573,319.007233 355.039795,314.045715 357.040375,308.960907
	C363.402954,311.264832 368.973419,313.304413 374.560120,315.298584
	C380.164978,317.299316 385.773773,319.290405 391.402954,321.221283
	C398.938385,323.806091 398.835571,323.743469 396.416351,331.268280
	C394.760559,336.418427 392.884674,341.609985 392.193237,346.924286
	C391.584625,351.601929 394.444916,353.698975 399.152283,354.023987
	C404.161835,354.369843 406.302460,351.314514 407.772736,347.327637
	C410.234283,340.652771 412.650238,333.960907 415.044983,327.261749
	C417.122833,321.448975 415.610474,316.311310 411.205658,311.944733
	C410.184021,310.931976 409.674561,308.517731 410.097961,307.096497
	C411.416382,302.671173 413.705261,298.516724 414.834381,294.058777
	C415.831421,290.122498 417.544983,288.525208 421.647003,288.957123
	C437.193665,290.594055 452.720367,275.118774 451.977783,260.098602
	C451.805542,256.614410 453.502930,255.903824 456.514099,255.969574
	C462.510803,256.100494 468.517426,256.152771 474.511139,255.961746
	C484.652557,255.638489 492.025024,250.717255 497.019592,241.969604
	C500.512634,235.851761 500.039764,229.173035 499.988434,222.546616
	C499.921295,213.883408 495.043915,209.014099 486.414459,209.007233
	C462.749023,208.988373 439.083099,208.921356 415.418610,209.070801
	C411.412842,209.096100 409.789490,208.076477 409.917297,203.790588
	C410.195343,194.466049 410.166962,185.123138 409.921326,175.796768
	C409.823608,172.086304 411.285706,170.615417 414.661499,169.524612
	C418.699524,168.219833 422.795319,166.551178 426.281708,164.180664
	C438.155304,156.107468 445.582001,145.029099 445.907532,130.367279
	C446.295898,112.876816 446.017639,95.371101 445.988281,77.872055
	C445.975922,70.488213 442.657104,67.029198 435.494476,67.017410
	C413.162354,66.980667 390.830139,66.984901 368.498016,67.016220
	C362.096497,67.025200 357.166473,70.887947 357.161865,77.070724
	C357.147675,96.025429 356.806458,115.042236 358.192780,133.917358
	C359.469543,151.301056 372.871552,165.644608 389.531097,169.842682
	C393.006897,170.718536 394.107971,172.215637 394.048523,175.606339
	C393.890778,184.603073 393.741913,193.614639 394.100494,202.599915
	C394.296875,207.520950 392.987854,209.199005 387.768707,209.124451
	C366.607483,208.822174 345.430359,209.381012 324.276581,208.882019
	C306.707214,208.467590 303.978455,212.079163 303.724121,229.029465
	C303.501404,243.869888 314.955139,256.480011 330.970245,256.033234
	C338.130890,255.833466 345.305603,256.144135 352.466583,255.950638
	C355.973236,255.855896 357.151215,257.159821 357.045898,260.594818
	C356.838043,267.375031 356.516602,274.091125 360.580170,280.318085
	C362.827240,283.761444 358.605713,291.889038 355.007233,291.923798
	C348.903931,291.982849 344.963562,294.922882 342.887604,300.410522
	C338.559814,311.850769 334.384705,323.348694 330.141724,334.821045
	C328.063812,340.439362 325.974457,346.053436 323.788818,351.942810
	C322.916199,351.168610 322.537231,350.995911 322.444305,350.725098
	C321.264374,347.286011 320.064240,343.851929 318.986115,340.380219
	C311.934021,317.672119 304.319580,295.202454 284.359406,280.016663
	C277.562897,274.845856 270.366241,269.888702 262.674042,266.279999
	C250.857147,260.736298 238.459518,256.428192 226.295517,251.628220
	C223.444077,250.503036 221.709915,249.006744 221.913147,245.430435
	C222.253021,239.450089 222.167725,233.430237 221.942352,227.439026
	C221.813599,224.016525 223.290817,221.906891 225.879211,219.967911
	C236.581467,211.950821 245.518494,202.743469 247.288483,188.516571
	C247.453629,187.189194 250.036102,185.404449 251.688202,185.166779
	C256.095642,184.532761 260.819611,185.419891 265.041260,184.292450
	C282.283325,179.687698 289.635468,161.318390 281.130371,145.533920
	C280.106171,143.633102 279.762115,140.817535 280.284393,138.720169
	C283.831360,124.475845 287.935608,110.368195 291.364746,96.097420
	C293.335266,87.896713 291.561676,79.958275 287.163391,72.743233
	C281.136078,62.855846 272.237030,56.599041 261.494354,52.676090
	C259.873352,52.084141 258.287903,51.097668 256.998077,49.944622
	C249.228653,42.999199 242.077652,35.235474 233.729706,29.090513
	C217.191772,16.916861 198.825974,8.233083 178.642090,3.681701
	C176.977783,3.306408 175.541977,1.917791 174.000000,1.000001
z"/>
<path fill="#0F476D" opacity="1.000000" stroke="none"
	d="
M173.531372,1.000001
	C175.541977,1.917791 176.977783,3.306408 178.642090,3.681701
	C198.825974,8.233083 217.191772,16.916861 233.729706,29.090513
	C242.077652,35.235474 249.228653,42.999199 256.998077,49.944622
	C258.287903,51.097668 259.873352,52.084141 261.494354,52.676090
	C272.237030,56.599041 281.136078,62.855846 287.163391,72.743233
	C291.561676,79.958275 293.335266,87.896713 291.364746,96.097420
	C287.935608,110.368195 283.831360,124.475845 280.284393,138.720169
	C279.762115,140.817535 280.106171,143.633102 281.130371,145.533920
	C289.635468,161.318390 282.283325,179.687698 265.041260,184.292450
	C260.819611,185.419891 256.095642,184.532761 251.688202,185.166779
	C250.036102,185.404449 247.453629,187.189194 247.288483,188.516571
	C245.518494,202.743469 236.581467,211.950821 225.879211,219.967911
	C223.290817,221.906891 221.813599,224.016525 221.942352,227.439026
	C222.167725,233.430237 222.253021,239.450089 221.913147,245.430435
	C221.709915,249.006744 223.444077,250.503036 226.295517,251.628220
	C238.459518,256.428192 250.857147,260.736298 262.674042,266.279999
	C270.366241,269.888702 277.562897,274.845856 284.359406,280.016663
	C304.319580,295.202454 311.934021,317.672119 318.986115,340.380219
	C320.064240,343.851929 321.264374,347.286011 322.444305,350.725098
	C322.537231,350.995911 322.916199,351.168610 323.788818,351.942810
	C325.974457,346.053436 328.063812,340.439362 330.141724,334.821045
	C334.384705,323.348694 338.559814,311.850769 342.887604,300.410522
	C344.963562,294.922882 348.903931,291.982849 355.007233,291.923798
	C358.605713,291.889038 362.827240,283.761444 360.580170,280.318085
	C356.516602,274.091125 356.838043,267.375031 357.045898,260.594818
	C357.151215,257.159821 355.973236,255.855896 352.466583,255.950638
	C345.305603,256.144135 338.130890,255.833466 330.970245,256.033234
	C314.955139,256.480011 303.501404,243.869888 303.724121,229.029465
	C303.978455,212.079163 306.707214,208.467590 324.276581,208.882019
	C345.430359,209.381012 366.607483,208.822174 387.768707,209.124451
	C392.987854,209.199005 394.296875,207.520950 394.100494,202.599915
	C393.741913,193.614639 393.890778,184.603073 394.048523,175.606339
	C394.107971,172.215637 393.006897,170.718536 389.531097,169.842682
	C372.871552,165.644608 359.469543,151.301056 358.192780,133.917358
	C356.806458,115.042236 357.147675,96.025429 357.161865,77.070724
	C357.166473,70.887947 362.096497,67.025200 368.498016,67.016220
	C390.830139,66.984901 413.162354,66.980667 435.494476,67.017410
	C442.657104,67.029198 445.975922,70.488213 445.988281,77.872055
	C446.017639,95.371101 446.295898,112.876816 445.907532,130.367279
	C445.582001,145.029099 438.155304,156.107468 426.281708,164.180664
	C422.795319,166.551178 418.699524,168.219833 414.661499,169.524612
	C411.285706,170.615417 409.823608,172.086304 409.921326,175.796768
	C410.166962,185.123138 410.195343,194.466049 409.917297,203.790588
	C409.789490,208.076477 411.412842,209.096100 415.418610,209.070801
	C439.083099,208.921356 462.749023,208.988373 486.414459,209.007233
	C495.043915,209.014099 499.921295,213.883408 499.988434,222.546616
	C500.039764,229.173035 500.512634,235.851761 497.019592,241.969604
	C492.025024,250.717255 484.652557,255.638489 474.511139,255.961746
	C468.517426,256.152771 462.510803,256.100494 456.514099,255.969574
	C453.502930,255.903824 451.805542,256.614410 451.977783,260.098602
	C452.720367,275.118774 437.193665,290.594055 421.647003,288.957123
	C417.544983,288.525208 415.831421,290.122498 414.834381,294.058777
	C413.705261,298.516724 411.416382,302.671173 410.097961,307.096497
	C409.674561,308.517731 410.184021,310.931976 411.205658,311.944733
	C415.610474,316.311310 417.122833,321.448975 415.044983,327.261749
	C412.650238,333.960907 410.234283,340.652771 407.772736,347.327637
	C406.302460,351.314514 404.161835,354.369843 399.152283,354.023987
	C394.444916,353.698975 391.584625,351.601929 392.193237,346.924286
	C392.884674,341.609985 394.760559,336.418427 396.416351,331.268280
	C398.835571,323.743469 398.938385,323.806091 391.402954,321.221283
	C385.773773,319.290405 380.164978,317.299316 374.560120,315.298584
	C368.973419,313.304413 363.402954,311.264832 357.040375,308.960907
	C355.039795,314.045715 352.943573,319.007233 351.121185,324.067383
	C342.041321,349.279114 333.032501,374.516479 324.000885,399.745605
	C322.253632,404.626465 317.932861,407.078094 313.520416,405.681396
	C309.079865,404.275818 307.035156,399.898438 308.653961,394.775238
	C310.097137,390.207733 312.092438,385.793274 313.236542,381.161255
	C313.856506,378.651154 313.820801,375.629639 313.029205,373.178436
	C308.656006,359.636139 303.756470,346.262970 299.430145,332.706512
	C295.146790,319.284760 289.036163,306.882263 279.061188,296.892426
	C273.810699,291.634094 267.396576,287.537720 260.527283,282.147186
	C258.473907,293.380432 256.699158,302.762360 255.057175,312.167542
	C253.524368,320.947418 252.150558,329.754944 250.675110,338.545013
	C247.615814,356.770844 252.739014,371.776245 268.603790,383.551025
	C268.769897,381.318604 268.976959,379.777618 268.983795,378.235779
	C269.020020,370.069702 269.104584,361.901764 268.970703,353.737793
	C268.895416,349.146454 271.662476,347.023285 275.448212,346.186340
	C279.597961,345.268951 282.602081,347.318939 283.880676,351.324860
	C284.572540,353.492554 284.936676,355.855377 284.952209,358.133606
	C285.047607,372.132202 285.645081,386.170502 284.806976,400.119354
	C284.080994,412.202454 287.417816,422.989166 291.902710,433.767670
	C295.191803,441.672394 297.179962,450.130280 303.808960,456.394745
	C319.270386,471.005798 344.508911,466.920349 353.276825,447.814545
	C358.916199,435.526062 363.147339,422.585907 367.891937,409.893829
	C372.001801,398.899689 375.903534,387.827881 379.984497,376.822754
	C381.573151,372.538666 385.644226,370.229401 389.329193,371.260864
	C393.705780,372.485931 396.420715,376.639679 394.996338,381.239655
	C392.161041,390.396149 388.944458,399.439728 385.698242,408.462616
	C380.886414,421.837128 375.850708,435.130981 371.021637,448.499390
	C364.627899,466.199402 352.176025,477.745422 333.845520,480.635864
	C315.119141,483.588715 298.763458,477.515930 286.991638,461.680603
	C286.816315,461.444733 286.431122,461.364868 285.478546,460.858612
	C285.299622,462.448608 285.027374,463.769714 285.022003,465.091919
	C284.983917,474.424622 284.795593,483.763489 285.066010,493.088470
	C285.275726,500.320496 284.272400,506.959167 278.940796,512.645874
	C206.979111,513.000000 134.958206,513.000000 62.519180,512.634399
	C56.969219,506.021240 57.669220,498.577484 58.186722,491.349182
	C58.522175,486.663635 61.973930,483.822296 66.095413,484.067444
	C70.029533,484.301483 73.248222,485.928436 73.918983,490.243469
	C75.122162,497.983612 75.031616,497.999054 82.807625,497.999359
	C85.468048,497.999451 88.138695,497.841705 90.786316,498.023499
	C94.123436,498.252563 95.032181,496.728638 95.059052,493.603577
	C95.095779,489.332245 95.247734,484.988770 96.065430,480.816376
	C97.014404,475.974121 101.035233,475.583252 105.076561,476.082855
	C108.953285,476.562103 110.895912,478.957581 110.965874,482.826660
	C111.025993,486.151245 111.237671,489.499146 110.943192,492.797546
	C110.560951,497.078888 112.395706,498.330200 116.409546,498.056641
	C120.547897,497.774628 124.719101,497.974548 129.027878,497.582214
	C129.447189,495.405853 129.934174,493.612305 129.945633,491.815674
	C130.011261,481.527527 129.963913,471.238617 129.973343,460.567749
	C130.937408,455.232056 133.258331,453.371094 138.100876,453.683472
	C142.770447,453.984680 144.938126,456.170898 144.970520,460.980255
	C145.042343,471.645233 145.154037,482.314209 144.926468,492.974701
	C144.841278,496.965088 146.234558,498.339630 150.105316,498.046906
	C153.419235,497.796356 156.788803,497.758423 160.094940,498.056610
	C164.551376,498.458588 166.129807,496.996185 166.100693,492.274933
	C165.904404,460.446503 165.909302,428.615784 166.090500,396.787170
	C166.116791,392.167847 164.697968,390.870667 160.159363,390.909393
	C136.830444,391.108673 113.498901,390.993378 90.168274,391.003815
	C79.574577,391.008545 74.031082,396.570221 74.009628,407.275055
	C73.976898,423.606384 74.012222,439.937927 73.988525,456.269318
	C73.981331,461.227325 71.253464,464.581940 67.065430,464.938019
	C62.707905,465.308502 58.472443,461.611267 58.076656,456.828583
	C57.849289,454.081085 58.035442,451.299377 58.035442,448.900665
	C56.855648,448.416168 56.561543,448.215454 56.247913,448.177917
	C23.277832,444.231445 3.979409,409.188507 19.282270,379.777435
	C27.348524,364.274628 37.110294,349.651550 46.207108,334.692444
	C46.908348,333.539276 48.285492,332.590912 49.560875,332.032257
	C53.206505,330.435364 56.339924,331.535736 58.875290,334.447632
	C61.512676,337.476715 61.544563,340.664520 59.460785,344.056549
	C51.570805,356.900116 43.762680,369.793976 35.862091,382.630981
	C28.375360,394.795532 27.674593,407.018158 36.027313,418.948029
	C41.115871,426.215759 47.913448,431.201843 58.001457,431.736877
	C58.001457,422.806702 57.772549,414.173187 58.065601,405.557404
	C58.360855,396.876923 60.443066,388.466675 67.727928,383.019531
	C72.996819,379.079834 79.235390,376.437012 86.006210,372.680634
	C86.006210,367.425385 85.878334,360.777924 86.089607,354.141205
	C86.147682,352.316956 86.698982,349.617584 87.935341,348.908173
	C90.462669,347.458038 94.322266,345.642517 96.320625,346.631012
	C98.878044,347.896057 101.152519,351.583466 101.728218,354.577148
	C102.624908,359.239960 101.837784,364.204956 102.077065,369.026367
	C102.173325,370.965851 103.111404,374.512726 103.640755,374.507904
	C106.586716,374.481201 110.830063,374.613251 112.241066,372.815918
	C118.552757,364.775940 121.962135,355.177032 120.645325,344.985626
	C118.658134,329.605957 115.591187,314.364990 112.941559,299.072235
	C112.061134,293.990723 111.052673,288.931366 109.941818,283.003082
	C106.434265,285.934113 103.500725,287.877197 101.202866,290.399414
	C93.844437,298.476410 86.811005,306.849243 79.465759,314.938660
	C76.296547,318.428955 71.127754,318.965790 68.196037,316.630432
	C65.195175,314.239990 64.258324,308.148743 66.856590,304.871765
	C77.169823,291.864380 87.856354,279.211151 101.097374,268.956573
	C114.910454,258.258942 129.933655,250.275452 147.998703,247.572906
	C147.998703,240.526642 148.260635,233.718323 147.851746,226.950546
	C147.714996,224.687012 146.432617,221.819565 144.706146,220.434189
	C133.291946,211.274979 123.596870,201.152237 122.657455,185.530762
	C121.558853,185.315094 120.924126,185.107605 120.281059,185.077332
	C115.147804,184.835709 109.779869,185.518082 104.921288,184.246246
	C88.844086,180.037704 81.329750,162.612656 88.152962,147.323669
	C89.203751,144.969147 89.300865,141.491501 88.389793,139.081039
	C84.666237,129.229507 82.263626,119.123314 82.076424,108.645470
	C81.809166,93.687057 85.057434,79.373528 91.622414,65.903465
	C92.910461,63.260635 92.705605,61.852093 90.464478,59.626808
	C84.235756,53.442104 78.432137,46.818504 72.628830,40.220299
	C69.305710,36.441986 70.410126,27.487549 75.868690,25.148228
	C89.052605,19.498140 103.128700,18.058353 117.190018,18.407787
	C128.114853,18.679279 138.993332,20.815443 150.236511,22.164097
	C149.723816,21.177332 149.314590,20.150681 148.706879,19.259365
	C145.109253,13.982829 145.057495,8.798096 148.889175,3.599786
	C149.433426,2.861424 149.638138,1.872798 150.000000,1.000000
	C157.687576,1.000000 165.375168,1.000000 173.531372,1.000001
M230.050369,270.567749
	C223.196182,267.356354 223.088165,267.314606 220.527328,273.941772
	C212.949585,293.552216 205.431641,313.186005 197.964844,332.838928
	C195.749756,338.669098 190.880814,342.157806 184.698944,341.992218
	C178.405853,341.823700 174.771011,338.919525 172.100281,331.966827
	C164.035126,310.970734 155.915756,289.995209 147.935349,268.966949
	C146.531815,265.268677 144.524292,264.029510 140.765442,265.587494
	C136.637970,267.298309 132.435974,268.834930 128.234787,270.360260
	C125.322380,271.417664 124.613159,273.594269 125.086571,276.316833
	C128.197586,294.207916 131.501083,312.067139 134.423828,329.988647
	C135.797119,338.409363 138.441208,346.788086 136.067490,355.525391
	C134.395950,361.678131 133.090027,367.930206 131.588593,374.274261
	C131.883133,374.418304 132.304947,374.803070 132.729477,374.806061
	C143.558731,374.882935 154.389572,375.007172 165.215942,374.844543
	C166.458984,374.825897 168.054153,373.417816 168.842957,372.227692
	C172.533127,366.660095 177.439789,363.675903 184.246353,363.977173
	C187.406631,364.117035 190.578262,363.996277 193.744736,364.001190
	C203.878387,364.016815 208.521500,367.415649 211.959488,376.877228
	C212.426926,378.163666 214.083267,379.682739 215.388763,379.901184
	C238.182465,383.715637 246.129654,401.601929 242.339813,421.921936
	C239.456009,437.384003 227.374405,446.435211 210.799088,446.951782
	C202.640656,447.206024 194.466232,447.111664 186.302887,446.963623
	C183.051926,446.904694 181.936432,448.100220 181.962860,451.325104
	C182.078857,465.489929 182.058228,479.656525 181.977753,493.821838
	C181.961365,496.705627 182.818420,498.035248 185.948044,498.026154
	C212.279541,497.949677 238.611420,497.953247 264.942932,498.024902
	C267.958038,498.033081 269.031281,496.932617 269.024384,493.931000
	C268.958069,465.099579 269.036835,436.267639 268.866791,407.437073
	C268.856232,405.643951 267.473206,403.472107 266.083893,402.158295
	C263.577759,399.788391 260.544434,397.985016 257.799377,395.857239
	C238.776245,381.111664 231.039322,361.489502 234.368118,337.981598
	C237.143555,318.381561 241.287598,298.976929 244.608719,279.448883
	C244.819580,278.208954 243.494705,275.953003 242.298721,275.369141
	C238.600571,273.563629 234.619003,272.338562 230.050369,270.567749
M262.887543,132.938889
	C263.924500,132.058960 265.546478,131.369843 265.905579,130.268814
	C268.723663,121.628731 271.663635,112.998566 273.815765,104.182190
	C275.129822,98.799156 276.137451,92.968605 275.481171,87.557541
	C274.244019,77.357010 266.291351,71.976219 257.681702,68.618217
	C251.287460,66.124283 246.436417,62.718521 241.811707,57.605549
	C224.792999,38.790085 202.910889,27.677139 179.019745,20.193996
	C175.527786,19.100252 171.837112,18.640900 167.119858,17.653997
	C168.836563,21.416121 170.196732,23.873697 171.097946,26.489405
	C172.605560,30.865128 173.129501,35.480339 169.742966,39.150826
	C166.661591,42.490562 162.651871,43.738430 158.013229,42.038521
	C154.758636,40.845821 151.435623,39.651447 148.038391,39.072433
	C138.610077,37.465508 129.166916,35.561016 119.653946,34.947338
	C110.762184,34.373730 101.773376,35.304333 91.663231,35.607834
	C93.018524,38.359074 93.323418,39.717648 94.157013,40.540852
	C97.577950,43.919159 100.947357,47.407516 104.728691,50.350464
	C111.688362,55.767059 112.749260,59.985001 108.685402,67.722816
	C97.648903,88.736931 94.010925,110.320892 103.679604,132.998642
	C107.553596,132.998642 111.225288,132.720596 114.836876,133.067780
	C119.536606,133.519577 121.401192,132.037018 121.115807,127.050140
	C120.796608,121.472443 122.929131,119.301521 128.355316,118.110115
	C130.124008,117.721764 131.903214,117.380920 133.678482,117.022713
	C155.528381,112.613998 174.995300,103.226425 191.788406,88.592216
	C197.571960,83.552193 203.185501,79.610954 211.535309,80.844955
	C217.077591,81.664040 222.876114,81.410606 228.493134,80.901047
	C236.099518,80.211006 245.997849,87.637703 246.932999,95.364540
	C248.004364,104.216843 248.556473,113.147972 248.953751,122.061806
	C249.442154,133.020050 249.272186,133.027893 260.007050,132.997147
	C260.673279,132.995239 261.339508,132.984192 262.887543,132.938889
M137.924469,176.704590
	C138.136215,186.653534 140.114914,195.900696 148.767120,202.206390
	C155.416031,207.052109 161.869705,212.320175 169.039658,216.252823
	C176.125320,220.139236 183.924133,222.833939 192.394226,219.966766
	C204.203842,215.969147 214.449249,209.329178 223.394791,200.866867
	C227.515808,196.968445 230.842209,192.212387 231.267380,185.891891
	C231.820496,177.669434 233.872772,169.484650 233.804077,161.296036
	C233.635727,141.225540 232.669678,121.160110 231.834641,101.100555
	C231.779938,99.786385 230.295975,97.618858 229.180038,97.406258
	C220.335709,95.721329 211.246017,93.284599 203.354691,100.211197
	C185.725693,115.685028 165.360092,125.929947 142.689346,131.480865
	C137.527328,132.744781 135.839310,135.339828 135.999359,140.095215
	C136.367584,151.035172 136.688950,161.976730 137.083557,172.915680
	C137.118500,173.884003 137.550354,174.837982 137.924469,176.704590
M385.500000,224.999817
	C365.346649,225.001617 345.192566,225.091949 325.040527,224.928986
	C321.106079,224.897156 319.759766,226.139633 319.941223,230.058121
	C320.230927,236.313614 323.985779,239.970673 331.108734,239.976151
	C378.410828,240.012512 425.712921,239.967957 473.014923,240.035187
	C477.811005,240.042007 480.881836,237.607468 482.991425,233.804901
	C486.032135,228.323914 484.047028,225.009521 477.939606,225.007004
	C447.459747,224.994415 416.979858,225.000381 385.500000,224.999817
M221.444061,427.044830
	C228.185135,421.397369 228.118088,413.989380 226.137115,406.529510
	C224.082184,398.791107 218.675842,396.016693 207.627991,395.999573
	C198.232025,395.985016 196.120895,394.120789 196.083878,384.773651
	C196.069061,381.037170 194.852768,379.565155 191.173904,379.978851
	C189.693741,380.145264 188.173050,380.101654 186.682373,379.993835
	C183.246307,379.745178 181.946732,381.281281 181.971039,384.698456
	C182.070557,398.685089 182.076920,412.673431 181.962814,426.659882
	C181.936691,429.861389 183.011917,431.100433 186.280319,431.038116
	C194.436646,430.882721 202.617477,431.314606 210.747940,430.830231
	C214.189194,430.625244 217.528748,428.712585 221.444061,427.044830
M435.932007,258.548889
	C434.616058,257.704193 433.306458,256.135590 431.983154,256.123932
	C413.691681,255.962631 395.398254,255.995270 377.105560,256.060150
	C375.876801,256.064484 373.574799,256.739227 373.583679,257.050354
	C373.722626,261.909027 372.356262,268.374084 374.931519,271.250916
	C379.321533,276.154938 379.499939,280.338562 377.685699,285.642517
	C376.338043,289.582306 374.904022,293.492554 373.409668,297.693665
	C380.613190,300.243500 386.929993,302.479431 393.563751,304.827576
	C396.467316,296.776123 399.261078,289.026367 402.056915,281.277344
	C404.441406,274.668427 406.241791,273.312317 413.282959,273.032593
	C415.939758,272.926971 418.604034,273.022247 421.264587,272.994843
	C429.625214,272.908691 435.121460,267.819824 435.932007,258.548889
M178.470215,274.231628
	C187.594467,276.555542 196.111069,274.407288 203.532196,269.334351
	C205.872345,267.734680 206.776764,263.228058 207.221146,259.902618
	C207.616714,256.942322 206.178268,253.786469 206.062637,250.697708
	C205.845871,244.907578 206.000244,239.103561 206.000244,232.218155
	C191.766815,238.340210 178.146408,238.867065 164.923706,232.119598
	C164.467575,233.043488 164.214066,233.327423 164.196930,233.624969
	C163.655548,243.019699 163.083969,252.413452 162.679749,261.814362
	C162.626755,263.046753 163.359634,264.355560 163.881653,265.562775
	C166.483307,271.579437 172.432907,272.231750 178.470215,274.231628
M381.584229,83.001930
	C380.753326,83.002495 379.906433,83.108902 379.094147,82.986183
	C374.346039,82.268822 372.560944,84.116104 372.910614,89.010712
	C373.312225,94.632645 373.115845,100.307259 372.975555,105.953926
	C372.900665,108.967491 374.070587,110.040932 377.061707,110.025032
	C393.347351,109.938408 409.633942,109.940392 425.919617,110.024033
	C428.878815,110.039223 430.112366,109.022995 430.042175,105.981537
	C429.904205,100.002174 429.811768,94.008316 430.082031,88.037735
	C430.260773,84.090042 428.825562,82.883781 424.940887,82.934250
	C410.817535,83.117691 396.690338,83.003700 381.584229,83.001930
M377.111145,141.227234
	C383.967896,152.101013 393.739380,157.112442 406.495239,154.902878
	C419.116180,152.716705 427.249542,144.118927 429.859009,132.238785
	C430.999390,127.046944 429.906647,126.024948 424.676453,126.014824
	C409.200409,125.984886 393.724213,125.993683 378.248169,126.019447
	C376.644165,126.022118 375.040466,126.239822 372.121857,126.454422
	C373.864807,131.645889 375.355896,136.087219 377.111145,141.227234
M176.104294,290.175171
	C175.556534,291.099121 174.363663,292.211609 174.569366,292.915314
	C175.628418,296.538361 176.971741,300.085876 178.356659,303.604309
	C180.407623,308.814941 182.576996,313.978943 185.259155,320.540619
	C189.402344,309.564819 192.951889,300.161682 196.633698,290.408173
	C189.266159,290.408173 183.049667,290.408173 176.104294,290.175171
M105.049454,166.524719
	C109.108116,170.419403 114.132202,168.787552 118.817558,168.745499
	C119.535561,168.739044 120.864792,166.989716 120.844917,166.069489
	C120.725258,160.528061 120.294647,154.993347 119.960587,149.328400
	C113.370003,149.050125 107.143166,147.259018 103.388298,153.513855
	C100.901665,157.656052 101.126511,162.078690 105.049454,166.524719
M259.891998,168.959717
	C265.402679,167.305801 269.219849,162.422470 268.448395,158.013382
	C267.256836,151.203415 262.019470,147.864197 253.345230,149.117844
	C246.768738,150.068329 251.400589,155.584061 250.024200,158.721954
	C249.841293,159.138901 249.992279,159.705002 249.998825,160.201889
	C250.035797,163.010941 248.998169,167.249207 250.373383,168.286179
	C252.322876,169.756165 256.051361,168.866882 259.891998,168.959717
z"/>
<path fill="#00000000" opacity="1.000000" stroke="none"
	d="
M149.531342,1.000000
	C149.638138,1.872798 149.433426,2.861424 148.889175,3.599786
	C145.057495,8.798096 145.109253,13.982829 148.706879,19.259365
	C149.314590,20.150681 149.723816,21.177332 150.236511,22.164097
	C138.993332,20.815443 128.114853,18.679279 117.190018,18.407787
	C103.128700,18.058353 89.052605,19.498140 75.868690,25.148228
	C70.410126,27.487549 69.305710,36.441986 72.628830,40.220299
	C78.432137,46.818504 84.235756,53.442104 90.464478,59.626808
	C92.705605,61.852093 92.910461,63.260635 91.622414,65.903465
	C85.057434,79.373528 81.809166,93.687057 82.076424,108.645470
	C82.263626,119.123314 84.666237,129.229507 88.389793,139.081039
	C89.300865,141.491501 89.203751,144.969147 88.152962,147.323669
	C81.329750,162.612656 88.844086,180.037704 104.921288,184.246246
	C109.779869,185.518082 115.147804,184.835709 120.281059,185.077332
	C120.924126,185.107605 121.558853,185.315094 122.657455,185.530762
	C123.596870,201.152237 133.291946,211.274979 144.706146,220.434189
	C146.432617,221.819565 147.714996,224.687012 147.851746,226.950546
	C148.260635,233.718323 147.998703,240.526642 147.998703,247.572906
	C129.933655,250.275452 114.910454,258.258942 101.097374,268.956573
	C87.856354,279.211151 77.169823,291.864380 66.856590,304.871765
	C64.258324,308.148743 65.195175,314.239990 68.196037,316.630432
	C71.127754,318.965790 76.296547,318.428955 79.465759,314.938660
	C86.811005,306.849243 93.844437,298.476410 101.202866,290.399414
	C103.500725,287.877197 106.434265,285.934113 109.941818,283.003082
	C111.052673,288.931366 112.061134,293.990723 112.941559,299.072235
	C115.591187,314.364990 118.658134,329.605957 120.645325,344.985626
	C121.962135,355.177032 118.552757,364.775940 112.241066,372.815918
	C110.830063,374.613251 106.586716,374.481201 103.640755,374.507904
	C103.111404,374.512726 102.173325,370.965851 102.077065,369.026367
	C101.837784,364.204956 102.624908,359.239960 101.728218,354.577148
	C101.152519,351.583466 98.878044,347.896057 96.320625,346.631012
	C94.322266,345.642517 90.462669,347.458038 87.935341,348.908173
	C86.698982,349.617584 86.147682,352.316956 86.089607,354.141205
	C85.878334,360.777924 86.006210,367.425385 86.006210,372.680634
	C79.235390,376.437012 72.996819,379.079834 67.727928,383.019531
	C60.443066,388.466675 58.360855,396.876923 58.065601,405.557404
	C57.772549,414.173187 58.001457,422.806702 58.001457,431.736877
	C47.913448,431.201843 41.115871,426.215759 36.027313,418.948029
	C27.674593,407.018158 28.375360,394.795532 35.862091,382.630981
	C43.762680,369.793976 51.570805,356.900116 59.460785,344.056549
	C61.544563,340.664520 61.512676,337.476715 58.875290,334.447632
	C56.339924,331.535736 53.206505,330.435364 49.560875,332.032257
	C48.285492,332.590912 46.908348,333.539276 46.207108,334.692444
	C37.110294,349.651550 27.348524,364.274628 19.282270,379.777435
	C3.979409,409.188507 23.277832,444.231445 56.247913,448.177917
	C56.561543,448.215454 56.855648,448.416168 58.035442,448.900665
	C58.035442,451.299377 57.849289,454.081085 58.076656,456.828583
	C58.472443,461.611267 62.707905,465.308502 67.065430,464.938019
	C71.253464,464.581940 73.981331,461.227325 73.988525,456.269318
	C74.012222,439.937927 73.976898,423.606384 74.009628,407.275055
	C74.031082,396.570221 79.574577,391.008545 90.168274,391.003815
	C113.498901,390.993378 136.830444,391.108673 160.159363,390.909393
	C164.697968,390.870667 166.116791,392.167847 166.090500,396.787170
	C165.909302,428.615784 165.904404,460.446503 166.100693,492.274933
	C166.129807,496.996185 164.551376,498.458588 160.094940,498.056610
	C156.788803,497.758423 153.419235,497.796356 150.105316,498.046906
	C146.234558,498.339630 144.841278,496.965088 144.926468,492.974701
	C145.154037,482.314209 145.042343,471.645233 144.970520,460.980255
	C144.938126,456.170898 142.770447,453.984680 138.100876,453.683472
	C133.258331,453.371094 130.937408,455.232056 129.702469,460.891968
	C129.234085,473.720154 129.055008,485.841858 128.875931,497.963623
	C124.719101,497.974548 120.547897,497.774628 116.409546,498.056641
	C112.395706,498.330200 110.560951,497.078888 110.943192,492.797546
	C111.237671,489.499146 111.025993,486.151245 110.965874,482.826660
	C110.895912,478.957581 108.953285,476.562103 105.076561,476.082855
	C101.035233,475.583252 97.014404,475.974121 96.065430,480.816376
	C95.247734,484.988770 95.095779,489.332245 95.059052,493.603577
	C95.032181,496.728638 94.123436,498.252563 90.786316,498.023499
	C88.138695,497.841705 85.468048,497.999451 82.807625,497.999359
	C75.031616,497.999054 75.122162,497.983612 73.918983,490.243469
	C73.248222,485.928436 70.029533,484.301483 66.095413,484.067444
	C61.973930,483.822296 58.522175,486.663635 58.186722,491.349182
	C57.669220,498.577484 56.969219,506.021240 62.050522,512.634399
	C41.678989,513.000000 21.357979,513.000000 1.018485,513.000000
	C1.018485,342.449097 1.018485,171.898178 1.018485,1.000000
	C50.353683,1.000000 99.708183,1.000000 149.531342,1.000000
z"/>
<path fill="#00000000" opacity="1.000000" stroke="none"
	d="
M230.398926,270.727966
	C234.619003,272.338562 238.600571,273.563629 242.298721,275.369141
	C243.494705,275.953003 244.819580,278.208954 244.608719,279.448883
	C241.287598,298.976929 237.143555,318.381561 234.368118,337.981598
	C231.039322,361.489502 238.776245,381.111664 257.799377,395.857239
	C260.544434,397.985016 263.577759,399.788391 266.083893,402.158295
	C267.473206,403.472107 268.856232,405.643951 268.866791,407.437073
	C269.036835,436.267639 268.958069,465.099579 269.024384,493.931000
	C269.031281,496.932617 267.958038,498.033081 264.942932,498.024902
	C238.611420,497.953247 212.279541,497.949677 185.948044,498.026154
	C182.818420,498.035248 181.961365,496.705627 181.977753,493.821838
	C182.058228,479.656525 182.078857,465.489929 181.962860,451.325104
	C181.936432,448.100220 183.051926,446.904694 186.302887,446.963623
	C194.466232,447.111664 202.640656,447.206024 210.799088,446.951782
	C227.374405,446.435211 239.456009,437.384003 242.339813,421.921936
	C246.129654,401.601929 238.182465,383.715637 215.388763,379.901184
	C214.083267,379.682739 212.426926,378.163666 211.959488,376.877228
	C208.521500,367.415649 203.878387,364.016815 193.744736,364.001190
	C190.578262,363.996277 187.406631,364.117035 184.246353,363.977173
	C177.439789,363.675903 172.533127,366.660095 168.842957,372.227692
	C168.054153,373.417816 166.458984,374.825897 165.215942,374.844543
	C154.389572,375.007172 143.558731,374.882935 132.729477,374.806061
	C132.304947,374.803070 131.883133,374.418304 131.588593,374.274261
	C133.090027,367.930206 134.395950,361.678131 136.067490,355.525391
	C138.441208,346.788086 135.797119,338.409363 134.423828,329.988647
	C131.501083,312.067139 128.197586,294.207916 125.086571,276.316833
	C124.613159,273.594269 125.322380,271.417664 128.234787,270.360260
	C132.435974,268.834930 136.637970,267.298309 140.765442,265.587494
	C144.524292,264.029510 146.531815,265.268677 147.935349,268.966949
	C155.915756,289.995209 164.035126,310.970734 172.100281,331.966827
	C174.771011,338.919525 178.405853,341.823700 184.698944,341.992218
	C190.880814,342.157806 195.749756,338.669098 197.964844,332.838928
	C205.431641,313.186005 212.949585,293.552216 220.527328,273.941772
	C223.088165,267.314606 223.196182,267.356354 230.398926,270.727966
z"/>
<path fill="#00000000" opacity="1.000000" stroke="none"
	d="
M262.446655,132.958145
	C261.339508,132.984192 260.673279,132.995239 260.007050,132.997147
	C249.272186,133.027893 249.442154,133.020050 248.953751,122.061806
	C248.556473,113.147972 248.004364,104.216843 246.932999,95.364540
	C245.997849,87.637703 236.099518,80.211006 228.493134,80.901047
	C222.876114,81.410606 217.077591,81.664040 211.535309,80.844955
	C203.185501,79.610954 197.571960,83.552193 191.788406,88.592216
	C174.995300,103.226425 155.528381,112.613998 133.678482,117.022713
	C131.903214,117.380920 130.124008,117.721764 128.355316,118.110115
	C122.929131,119.301521 120.796608,121.472443 121.115807,127.050140
	C121.401192,132.037018 119.536606,133.519577 114.836876,133.067780
	C111.225288,132.720596 107.553596,132.998642 103.679604,132.998642
	C94.010925,110.320892 97.648903,88.736931 108.685402,67.722816
	C112.749260,59.985001 111.688362,55.767059 104.728691,50.350464
	C100.947357,47.407516 97.577950,43.919159 94.157013,40.540852
	C93.323418,39.717648 93.018524,38.359074 91.663231,35.607834
	C101.773376,35.304333 110.762184,34.373730 119.653946,34.947338
	C129.166916,35.561016 138.610077,37.465508 148.038391,39.072433
	C151.435623,39.651447 154.758636,40.845821 158.013229,42.038521
	C162.651871,43.738430 166.661591,42.490562 169.742966,39.150826
	C173.129501,35.480339 172.605560,30.865128 171.097946,26.489405
	C170.196732,23.873697 168.836563,21.416121 167.119858,17.653997
	C171.837112,18.640900 175.527786,19.100252 179.019745,20.193996
	C202.910889,27.677139 224.792999,38.790085 241.811707,57.605549
	C246.436417,62.718521 251.287460,66.124283 257.681702,68.618217
	C266.291351,71.976219 274.244019,77.357010 275.481171,87.557541
	C276.137451,92.968605 275.129822,98.799156 273.815765,104.182190
	C271.663635,112.998566 268.723663,121.628731 265.905579,130.268814
	C265.546478,131.369843 263.924500,132.058960 262.446655,132.958145
z"/>
<path fill="#00000000" opacity="1.000000" stroke="none"
	d="
M137.861160,176.251617
	C137.550354,174.837982 137.118500,173.884003 137.083557,172.915680
	C136.688950,161.976730 136.367584,151.035172 135.999359,140.095215
	C135.839310,135.339828 137.527328,132.744781 142.689346,131.480865
	C165.360092,125.929947 185.725693,115.685028 203.354691,100.211197
	C211.246017,93.284599 220.335709,95.721329 229.180038,97.406258
	C230.295975,97.618858 231.779938,99.786385 231.834641,101.100555
	C232.669678,121.160110 233.635727,141.225540 233.804077,161.296036
	C233.872772,169.484650 231.820496,177.669434 231.267380,185.891891
	C230.842209,192.212387 227.515808,196.968445 223.394791,200.866867
	C214.449249,209.329178 204.203842,215.969147 192.394226,219.966766
	C183.924133,222.833939 176.125320,220.139236 169.039658,216.252823
	C161.869705,212.320175 155.416031,207.052109 148.767120,202.206390
	C140.114914,195.900696 138.136215,186.653534 137.861160,176.251617
z"/>
<path fill="#00000000" opacity="1.000000" stroke="none"
	d="
M386.000000,224.999817
	C416.979858,225.000381 447.459747,224.994415 477.939606,225.007004
	C484.047028,225.009521 486.032135,228.323914 482.991425,233.804901
	C480.881836,237.607468 477.811005,240.042007 473.014923,240.035187
	C425.712921,239.967957 378.410828,240.012512 331.108734,239.976151
	C323.985779,239.970673 320.230927,236.313614 319.941223,230.058121
	C319.759766,226.139633 321.106079,224.897156 325.040527,224.928986
	C345.192566,225.091949 365.346649,225.001617 386.000000,224.999817
z"/>
<path fill="#00000000" opacity="1.000000" stroke="none"
	d="
M221.179291,427.310455
	C217.528748,428.712585 214.189194,430.625244 210.747940,430.830231
	C202.617477,431.314606 194.436646,430.882721 186.280319,431.038116
	C183.011917,431.100433 181.936691,429.861389 181.962814,426.659882
	C182.076920,412.673431 182.070557,398.685089 181.971039,384.698456
	C181.946732,381.281281 183.246307,379.745178 186.682373,379.993835
	C188.173050,380.101654 189.693741,380.145264 191.173904,379.978851
	C194.852768,379.565155 196.069061,381.037170 196.083878,384.773651
	C196.120895,394.120789 198.232025,395.985016 207.627991,395.999573
	C218.675842,396.016693 224.082184,398.791107 226.137115,406.529510
	C228.118088,413.989380 228.185135,421.397369 221.179291,427.310455
z"/>
<path fill="#00000000" opacity="1.000000" stroke="none"
	d="
M435.950378,258.974091
	C435.121460,267.819824 429.625214,272.908691 421.264587,272.994843
	C418.604034,273.022247 415.939758,272.926971 413.282959,273.032593
	C406.241791,273.312317 404.441406,274.668427 402.056915,281.277344
	C399.261078,289.026367 396.467316,296.776123 393.563751,304.827576
	C386.929993,302.479431 380.613190,300.243500 373.409668,297.693665
	C374.904022,293.492554 376.338043,289.582306 377.685699,285.642517
	C379.499939,280.338562 379.321533,276.154938 374.931519,271.250916
	C372.356262,268.374084 373.722626,261.909027 373.583679,257.050354
	C373.574799,256.739227 375.876801,256.064484 377.105560,256.060150
	C395.398254,255.995270 413.691681,255.962631 431.983154,256.123932
	C433.306458,256.135590 434.616058,257.704193 435.950378,258.974091
z"/>
<path fill="#00000000" opacity="1.000000" stroke="none"
	d="
M178.054352,274.149933
	C172.432907,272.231750 166.483307,271.579437 163.881653,265.562775
	C163.359634,264.355560 162.626755,263.046753 162.679749,261.814362
	C163.083969,252.413452 163.655548,243.019699 164.196930,233.624969
	C164.214066,233.327423 164.467575,233.043488 164.923706,232.119598
	C178.146408,238.867065 191.766815,238.340210 206.000244,232.218155
	C206.000244,239.103561 205.845871,244.907578 206.062637,250.697708
	C206.178268,253.786469 207.616714,256.942322 207.221146,259.902618
	C206.776764,263.228058 205.872345,267.734680 203.532196,269.334351
	C196.111069,274.407288 187.594467,276.555542 178.054352,274.149933
z"/>
<path fill="#00000000" opacity="1.000000" stroke="none"
	d="
M382.074402,83.001900
	C396.690338,83.003700 410.817535,83.117691 424.940887,82.934250
	C428.825562,82.883781 430.260773,84.090042 430.082031,88.037735
	C429.811768,94.008316 429.904205,100.002174 430.042175,105.981537
	C430.112366,109.022995 428.878815,110.039223 425.919617,110.024033
	C409.633942,109.940392 393.347351,109.938408 377.061707,110.025032
	C374.070587,110.040932 372.900665,108.967491 372.975555,105.953926
	C373.115845,100.307259 373.312225,94.632645 372.910614,89.010712
	C372.560944,84.116104 374.346039,82.268822 379.094147,82.986183
	C379.906433,83.108902 380.753326,83.002495 382.074402,83.001900
z"/>
<path fill="#00000000" opacity="1.000000" stroke="none"
	d="
M376.979065,140.877899
	C375.355896,136.087219 373.864807,131.645889 372.121857,126.454422
	C375.040466,126.239822 376.644165,126.022118 378.248169,126.019447
	C393.724213,125.993683 409.200409,125.984886 424.676453,126.014824
	C429.906647,126.024948 430.999390,127.046944 429.859009,132.238785
	C427.249542,144.118927 419.116180,152.716705 406.495239,154.902878
	C393.739380,157.112442 383.967896,152.101013 376.979065,140.877899
z"/>
<path fill="#00000000" opacity="1.000000" stroke="none"
	d="
M176.468719,290.291687
	C183.049667,290.408173 189.266159,290.408173 196.633698,290.408173
	C192.951889,300.161682 189.402344,309.564819 185.259155,320.540619
	C182.576996,313.978943 180.407623,308.814941 178.356659,303.604309
	C176.971741,300.085876 175.628418,296.538361 174.569366,292.915314
	C174.363663,292.211609 175.556534,291.099121 176.468719,290.291687
z"/>
<path fill="#00000000" opacity="1.000000" stroke="none"
	d="
M104.769531,166.244446
	C101.126511,162.078690 100.901665,157.656052 103.388298,153.513855
	C107.143166,147.259018 113.370003,149.050125 119.960587,149.328400
	C120.294647,154.993347 120.725258,160.528061 120.844917,166.069489
	C120.864792,166.989716 119.535561,168.739044 118.817558,168.745499
	C114.132202,168.787552 109.108116,170.419403 104.769531,166.244446
z"/>
<path fill="#00000000" opacity="1.000000" stroke="none"
	d="
M259.455780,168.972778
	C256.051361,168.866882 252.322876,169.756165 250.373383,168.286179
	C248.998169,167.249207 250.035797,163.010941 249.998825,160.201889
	C249.992279,159.705002 249.841293,159.138901 250.024200,158.721954
	C251.400589,155.584061 246.768738,150.068329 253.345230,149.117844
	C262.019470,147.864197 267.256836,151.203415 268.448395,158.013382
	C269.219849,162.422470 265.402679,167.305801 259.455780,168.972778
z"/>
<path fill="#00486D" opacity="1.000000" stroke="none"
	d="
M129.027878,497.582214
	C129.055008,485.841858 129.234085,473.720154 129.684036,461.274200
	C129.963913,471.238617 130.011261,481.527527 129.945633,491.815674
	C129.934174,493.612305 129.447189,495.405853 129.027878,497.582214
z"/>
</svg>